<svg width="101" height="101" viewBox="0 0 101 101" fill="none" xmlns="http://www.w3.org/2000/svg">
<path d="M41.7956 79.8374C58.2384 84.8511 75.6258 75.6074 80.6314 59.1911C85.637 42.7747 76.3653 25.4023 59.9224 20.3886C43.4796 15.3749 26.0922 24.6186 21.0866 41.035C16.081 57.4513 25.3527 74.8238 41.7956 79.8374Z" fill="url(#paint0_radial_13_4499)"/>
<g opacity="0.49">
<path d="M44.1958 71.9648C56.2841 75.6507 69.0668 68.855 72.7468 56.7863C76.4267 44.7175 69.6104 31.9457 57.5222 28.2598C45.4339 24.5739 32.6512 31.3696 28.9712 43.4384C25.2913 55.5072 32.1076 68.2789 44.1958 71.9648Z" fill="white"/>
</g>
<path d="M44.7719 70.0761C55.8151 73.4433 67.4927 67.2352 70.8545 56.2098C74.2163 45.1844 67.9893 33.5169 56.9461 30.1496C45.9029 26.7824 34.2254 32.9906 30.8636 44.016C27.5018 55.0414 33.7288 66.7089 44.7719 70.0761Z" fill="white"/>
<path d="M39.7192 45.2706C42.2274 46.0354 44.8797 44.6254 45.6433 42.1212C46.4069 39.617 44.9925 36.967 42.4843 36.2022C39.9761 35.4374 37.3238 36.8474 36.5602 39.3516C35.7966 41.8558 37.211 44.5058 39.7192 45.2706Z" fill="#EFEFF0"/>
<path d="M37.254 39.5632C37.9837 37.1701 40.4082 35.7756 42.8628 36.3176C42.7366 36.2791 42.6105 36.2406 42.4843 36.2022C39.9612 35.4328 37.3283 36.8326 36.5602 39.3516C35.7921 41.8706 37.1961 44.5013 39.7192 45.2706C39.8453 45.3091 39.9715 45.3476 40.0977 45.386C37.7583 44.4662 36.5244 41.9562 37.254 39.5632Z" fill="#D8D9DA"/>
<path d="M48.256 56.6147C51.1474 57.4964 54.2049 55.8709 55.0852 52.9841C55.9654 50.0973 54.335 47.0424 51.4435 46.1608C48.5521 45.2792 45.4946 46.9046 44.6144 49.7914C43.7341 52.6782 45.3645 55.7331 48.256 56.6147Z" fill="#EFEFF0"/>
<path d="M45.4344 50.0414C46.2793 47.2705 49.0959 45.7203 51.822 46.2762C51.6958 46.2377 51.5697 46.1993 51.4435 46.1608C48.542 45.2761 45.4977 46.8945 44.6144 49.7914C43.7311 52.6883 45.3544 55.73 48.256 56.6147C48.3821 56.6532 48.5083 56.6917 48.6344 56.7301C45.9989 55.6512 44.5895 52.8124 45.4344 50.0414Z" fill="#D8D9DA"/>
<path d="M60.2032 44.5646C62.1889 45.17 64.2887 44.0537 64.8931 42.0712C65.4976 40.0888 64.378 37.9908 62.3923 37.3854C60.4066 36.7799 58.3068 37.8962 57.7024 39.8787C57.0979 41.8611 58.2175 43.9591 60.2032 44.5646Z" fill="#EFEFF0"/>
<path d="M58.2703 40.0521C58.8464 38.1628 60.7772 37.0308 62.7079 37.4818C62.6449 37.4626 62.5187 37.4241 62.4556 37.4049C60.4372 36.7894 58.361 37.9459 57.7657 39.8982C57.1512 41.9134 58.3112 43.9879 60.2666 44.5841C60.3297 44.6033 60.4558 44.6418 60.5189 44.661C58.6842 43.8951 57.6943 41.9413 58.2703 40.0521Z" fill="#D8D9DA"/>
<path d="M35.6155 57.3725C36.8348 57.7442 38.1241 57.0588 38.4953 55.8415C38.8665 54.6242 38.1789 53.336 36.9597 52.9642C35.7404 52.5924 34.4511 53.2778 34.0799 54.4952C33.7087 55.7125 34.3962 57.0007 35.6155 57.3725Z" fill="#EFEFF0"/>
<path d="M34.3953 54.5913C34.7601 53.3948 35.9312 52.7194 37.1489 53.0219C37.0858 53.0026 37.0227 52.9834 36.9597 52.9642C35.6981 52.5795 34.4447 53.2986 34.0799 54.4952C33.6958 55.7547 34.417 57.007 35.6155 57.3725C35.6786 57.3917 35.7417 57.4109 35.8047 57.4302C34.6255 57.0018 34.0304 55.7879 34.3953 54.5913Z" fill="#D8D9DA"/>
<path d="M63.7623 56.1807C64.8074 56.4994 65.9125 55.9119 66.2307 54.8685C66.5488 53.825 65.9595 52.7209 64.9144 52.4022C63.8693 52.0835 62.7642 52.671 62.446 53.7145C62.1279 54.7579 62.7172 55.8621 63.7623 56.1807Z" fill="#EFEFF0"/>
<path d="M62.6983 53.7914C63.0056 52.7838 64.0121 52.1959 65.0406 52.4407C64.9775 52.4214 64.9144 52.4022 64.9144 52.4022C63.8421 52.0752 62.7533 52.7069 62.446 53.7145C62.1196 54.785 62.753 55.873 63.7623 56.1807C63.8254 56.2 63.8884 56.2192 63.8884 56.2192C62.8984 55.8485 62.3911 54.799 62.6983 53.7914Z" fill="#D8D9DA"/>
<path d="M50.7695 36.3887C51.8146 36.7074 52.9197 36.1199 53.2379 35.0765C53.556 34.033 52.9667 32.9289 51.9216 32.6102C50.8765 32.2915 49.7714 32.8791 49.4532 33.9225C49.1351 34.9659 49.7244 36.0701 50.7695 36.3887Z" fill="#EFEFF0"/>
<path d="M49.7055 33.9994C50.0128 32.9918 51.0193 32.4039 52.0478 32.6487C51.9847 32.6294 51.9216 32.6102 51.9216 32.6102C50.8493 32.2832 49.7605 32.9149 49.4532 33.9225C49.1268 34.9931 49.7602 36.081 50.7695 36.3887C50.8326 36.408 50.8956 36.4272 50.8956 36.4272C49.9687 36.0757 49.3983 35.007 49.7055 33.9994Z" fill="#D8D9DA"/>
<path d="M54.2751 67.3988C55.9124 67.8981 57.6438 66.9776 58.1422 65.343C58.6407 63.7083 57.7174 61.9784 56.0801 61.4792C54.4428 60.9799 52.7114 61.9004 52.213 63.5351C51.7145 65.1697 52.6378 66.8996 54.2751 67.3988Z" fill="#EFEFF0"/>
<path d="M52.6545 63.6697C53.1346 62.0953 54.7171 61.2012 56.3324 61.5561C56.2693 61.5369 56.2063 61.5176 56.0801 61.4792C54.4401 60.9791 52.7122 61.8977 52.213 63.5351C51.7137 65.1724 52.6351 66.8988 54.2751 67.3988C54.3382 67.4181 54.4012 67.4373 54.5274 67.4758C52.9889 66.869 52.1745 65.2441 52.6545 63.6697Z" fill="#D8D9DA"/>
<path opacity="0.91" d="M44.5196 69.9992C39.4927 68.3975 35.1048 64.9259 32.4285 59.9112C31.2 57.6093 30.446 55.108 30.0896 52.6591C29.3934 46.8027 31.1984 40.883 35.0438 36.4114C36.662 34.4958 38.6642 32.9037 40.968 31.6789C45.987 29.0106 51.5654 28.5778 56.6307 30.0535C57.4965 42.3628 52.0623 60.1849 44.5196 69.9992Z" fill="#00041E"/>
<defs>
<radialGradient id="paint0_radial_13_4499" cx="0" cy="0" r="1" gradientUnits="userSpaceOnUse" gradientTransform="translate(50.8628 50.1006) rotate(-73.0427) scale(31.0953 31.1455)">
<stop offset="0.0189189" stop-color="white"/>
<stop offset="0.9081" stop-color="white" stop-opacity="0"/>
</radialGradient>
</defs>
</svg>
