<svg width="101" height="101" viewBox="0 0 101 101" fill="none" xmlns="http://www.w3.org/2000/svg">
<path d="M41.3937 79.9449C57.8365 84.9586 75.2239 75.7149 80.2295 59.2985C85.2351 42.8822 75.9634 25.5097 59.5206 20.496C43.0777 15.4824 25.6903 24.726 20.6847 41.1424C15.6791 57.5587 24.9509 74.9312 41.3937 79.9449Z" fill="url(#paint0_radial_13_4284)"/>
<g opacity="0.49">
<path d="M43.794 72.0722C55.8823 75.7581 68.665 68.9625 72.3449 56.8937C76.0249 44.8249 69.2086 32.0532 57.1203 28.3673C45.032 24.6814 32.2493 31.4771 28.5694 43.5458C24.8894 55.6146 31.7057 68.3863 43.794 72.0722Z" fill="white"/>
</g>
<path d="M44.3701 70.1835C55.4133 73.5508 67.0908 67.3426 70.4526 56.3172C73.8144 45.2918 67.5875 33.6243 56.5443 30.2571C45.5011 26.8898 33.8235 33.098 30.4617 44.1234C27.0999 55.1488 33.3269 66.8163 44.3701 70.1835Z" fill="#FFF176"/>
<path d="M39.3365 45.3156C41.8447 46.0804 44.497 44.6703 45.2606 42.1661C46.0242 39.6619 44.6098 37.0119 42.1016 36.2471C39.5934 35.4823 36.9411 36.8924 36.1775 39.3965C35.4139 41.9007 36.8283 44.5508 39.3365 45.3156Z" fill="#FBD856"/>
<path d="M36.8713 39.6081C37.601 37.215 40.0255 35.8206 42.4801 36.3625C42.3539 36.324 42.2278 36.2856 42.1016 36.2471C39.5785 35.4778 36.9456 36.8775 36.1775 39.3965C35.4094 41.9156 36.8134 44.5462 39.3365 45.3156C39.4627 45.354 39.5888 45.3925 39.715 45.431C37.3564 44.5742 36.1225 42.0642 36.8713 39.6081Z" fill="#F6B338"/>
<path d="M47.8541 56.7222C50.7455 57.6038 53.8031 55.9783 54.6833 53.0915C55.5635 50.2048 53.9331 47.1499 51.0417 46.2682C48.1502 45.3866 45.0927 47.0121 44.2125 49.8988C43.3323 52.7856 44.9627 55.8405 47.8541 56.7222Z" fill="#FBD856"/>
<path d="M45.0325 50.1489C45.8774 47.378 48.6941 45.8277 51.4201 46.3836C51.294 46.3452 51.1678 46.3067 51.0417 46.2682C48.1401 45.3835 45.0958 47.002 44.2125 49.8988C43.3292 52.7957 44.9526 55.8374 47.8541 56.7222C47.9803 56.7606 48.1064 56.7991 48.2326 56.8376C45.5971 55.7586 44.1876 52.9198 45.0325 50.1489Z" fill="#F6B338"/>
<path d="M59.8207 44.6095C61.8063 45.2149 63.9061 44.0986 64.5106 42.1162C65.1151 40.1337 63.9954 38.0357 62.0097 37.4303C60.024 36.8248 57.9243 37.9411 57.3198 39.9236C56.7153 41.9061 57.835 44.004 59.8207 44.6095Z" fill="#FBD856"/>
<path d="M57.8878 40.097C58.4638 38.2077 60.3947 37.0757 62.3254 37.5267C62.2623 37.5075 62.1361 37.469 62.0731 37.4498C60.0546 36.8343 57.9784 37.9909 57.3831 39.9431C56.7687 41.9583 57.9286 44.0328 59.884 44.629C59.9471 44.6482 60.0732 44.6867 60.1363 44.7059C58.2824 44.003 57.3117 41.9862 57.8878 40.097Z" fill="#F6B338"/>
<path d="M35.2136 57.4799C36.4329 57.8517 37.7222 57.1662 38.0934 55.9489C38.4646 54.7316 37.7771 53.4434 36.5578 53.0716C35.3385 52.6998 34.0492 53.3853 33.678 54.6026C33.3068 55.8199 33.9944 57.1081 35.2136 57.4799Z" fill="#FBD856"/>
<path d="M33.9934 54.6987C34.3582 53.5022 35.5294 52.8268 36.747 53.1293C36.684 53.1101 36.6209 53.0908 36.5578 53.0716C35.2963 52.6869 34.0429 53.406 33.678 54.6026C33.3132 55.7991 34.0152 57.1145 35.2136 57.4799C35.2767 57.4991 35.3398 57.5183 35.4029 57.5376C34.2236 57.1092 33.6478 55.8323 33.9934 54.6987Z" fill="#F6B338"/>
<path d="M63.3604 56.2881C64.4055 56.6068 65.5106 56.0193 65.8288 54.9759C66.147 53.9325 65.5576 52.8283 64.5126 52.5096C63.4675 52.1909 62.3623 52.7785 62.0442 53.8219C61.726 54.8653 62.3153 55.9695 63.3604 56.2881Z" fill="#FBD856"/>
<path d="M62.2965 53.8988C62.6037 52.8912 63.6103 52.3033 64.6387 52.5481C64.5756 52.5288 64.5126 52.5096 64.5126 52.5096C63.4402 52.1826 62.3514 52.8143 62.0442 53.8219C61.7369 54.8295 62.3512 55.9804 63.3604 56.2881C63.4235 56.3074 63.4866 56.3266 63.4866 56.3266C62.4965 55.9559 61.9892 54.9064 62.2965 53.8988Z" fill="#F6B338"/>
<path d="M50.3676 36.4961C51.4127 36.8148 52.5179 36.2273 52.836 35.1839C53.1542 34.1405 52.5649 33.0363 51.5198 32.7176C50.4747 32.399 49.3695 32.9865 49.0514 34.0299C48.7332 35.0733 49.3225 36.1775 50.3676 36.4961Z" fill="#FBD856"/>
<path d="M49.367 34.1264C49.6743 33.1187 50.6808 32.5309 51.7093 32.7756C51.6462 32.7564 51.5831 32.7372 51.5831 32.7372C50.5108 32.4102 49.422 33.0418 49.1147 34.0494C48.8075 35.057 49.4217 36.2079 50.431 36.5157C50.4941 36.5349 50.5571 36.5541 50.5571 36.5541C49.5671 36.1834 49.0598 35.134 49.367 34.1264Z" fill="#F6B338"/>
<path d="M53.8732 67.5063C55.5106 68.0055 57.2419 67.0851 57.7404 65.4504C58.2388 63.8157 57.3156 62.0858 55.6783 61.5866C54.0409 61.0873 52.3096 62.0078 51.8111 63.6425C51.3127 65.2771 52.2359 67.007 53.8732 67.5063Z" fill="#FBD856"/>
<path d="M52.2527 63.7771C52.7327 62.2027 54.3152 61.3086 55.9306 61.6635C55.8675 61.6443 55.8044 61.625 55.6783 61.5866C54.0382 61.0865 52.3104 62.0051 51.8111 63.6425C51.3119 65.2798 52.2332 67.0062 53.8732 67.5063C53.9363 67.5255 53.9994 67.5447 54.1255 67.5832C52.587 66.9764 51.7726 65.3515 52.2527 63.7771Z" fill="#F6B338"/>
<defs>
<radialGradient id="paint0_radial_13_4284" cx="0" cy="0" r="1" gradientUnits="userSpaceOnUse" gradientTransform="translate(50.4701 50.2044) rotate(-73.0427) scale(31.0954 31.1456)">
<stop offset="0.0189189" stop-color="white"/>
<stop offset="0.9081" stop-color="white" stop-opacity="0"/>
</radialGradient>
</defs>
</svg>
