<svg width="101" height="101" viewBox="0 0 101 101" fill="none" xmlns="http://www.w3.org/2000/svg">
<path d="M41.823 80.2505C58.2659 85.2642 75.6533 76.0205 80.6589 59.6042C85.6644 43.1878 76.3927 25.8154 59.9499 20.8017C43.507 15.788 26.1197 25.0317 21.1141 41.4481C16.1085 57.8644 25.3802 75.2369 41.823 80.2505Z" fill="url(#paint0_radial_13_4561)"/>
<g opacity="0.49">
<path d="M44.2233 72.3779C56.3116 76.0638 69.0943 69.2681 72.7742 57.1993C76.4542 45.1305 69.6379 32.3588 57.5496 28.6729C45.4613 24.987 32.6787 31.7827 28.9987 43.8515C25.3187 55.9203 32.135 68.692 44.2233 72.3779Z" fill="white"/>
</g>
<path d="M44.7994 70.4892C55.8426 73.8564 67.5201 67.6483 70.8819 56.6229C74.2438 45.5975 68.0168 33.93 56.9736 30.5627C45.9304 27.1955 34.2529 33.4037 30.8911 44.429C27.5292 55.4544 33.7562 67.122 44.7994 70.4892Z" fill="white"/>
<path d="M39.7658 45.6212C42.274 46.386 44.9264 44.976 45.6899 42.4718C46.4535 39.9676 45.0392 37.3176 42.5309 36.5528C40.0227 35.788 37.3704 37.198 36.6068 39.7022C35.8433 42.2064 37.2576 44.8564 39.7658 45.6212Z" fill="#EFEFF0"/>
<path d="M37.3007 39.9138C38.0304 37.5207 40.4549 36.1262 42.9094 36.6682C42.7832 36.6297 42.6571 36.5912 42.5309 36.5528C40.0078 35.7834 37.3749 37.1832 36.6068 39.7022C35.8387 42.2212 37.2427 44.8519 39.7658 45.6212C39.892 45.6597 40.0181 45.6982 40.1443 45.7366C37.7858 44.8798 36.571 42.3068 37.3007 39.9138Z" fill="#D8D9DA"/>
<path d="M48.2834 57.0278C51.1749 57.9095 54.2324 56.284 55.1126 53.3972C55.9928 50.5104 54.3624 47.4555 51.471 46.5739C48.5796 45.6923 45.522 47.3177 44.6418 50.2045C43.7616 53.0913 45.392 56.1462 48.2834 57.0278Z" fill="#EFEFF0"/>
<path d="M45.4618 50.4545C46.3067 47.6836 49.1234 46.1334 51.8495 46.6893C51.7233 46.6508 51.5972 46.6124 51.471 46.5739C48.5695 45.6892 45.5251 47.3076 44.6418 50.2045C43.7585 53.1014 45.3819 56.1431 48.2834 57.0278C48.4096 57.0663 48.5357 57.1048 48.6619 57.1432C46.0264 56.0643 44.6361 53.1625 45.4618 50.4545Z" fill="#D8D9DA"/>
<path d="M60.25 44.9151C62.2357 45.5206 64.3354 44.4043 64.9399 42.4218C65.5444 40.4393 64.4247 38.3414 62.439 37.7359C60.4533 37.1305 58.3536 38.2468 57.7491 40.2293C57.1446 42.2117 58.2643 44.3097 60.25 44.9151Z" fill="#EFEFF0"/>
<path d="M58.3171 40.4026C58.8931 38.5134 60.824 37.3814 62.7547 37.8324C62.6916 37.8132 62.5655 37.7747 62.5024 37.7555C60.4839 37.14 58.4077 38.2965 57.8125 40.2488C57.198 42.264 58.3579 44.3384 60.3133 44.9347C60.3764 44.9539 60.5026 44.9924 60.5656 45.0116C58.7117 44.3087 57.741 42.2919 58.3171 40.4026Z" fill="#D8D9DA"/>
<path d="M35.643 57.7855C36.8622 58.1573 38.1516 57.4719 38.5227 56.2546C38.8939 55.0373 38.2064 53.749 36.9871 53.3773C35.7678 53.0055 34.4785 53.6909 34.1073 54.9082C33.7362 56.1256 34.4237 57.4138 35.643 57.7855Z" fill="#EFEFF0"/>
<path d="M34.4227 55.0044C34.7876 53.8079 35.9587 53.1325 37.1764 53.435C37.1133 53.4157 37.0502 53.3965 36.9871 53.3773C35.7256 52.9926 34.4722 53.7117 34.1073 54.9082C33.7233 56.1678 34.4445 57.4201 35.643 57.7855C35.706 57.8048 35.7691 57.824 35.8322 57.8432C34.6529 57.4148 34.0771 56.138 34.4227 55.0044Z" fill="#D8D9DA"/>
<path d="M63.7897 56.5938C64.8348 56.9125 65.94 56.3249 66.2581 55.2815C66.5763 54.2381 65.987 53.1339 64.9419 52.8153C63.8968 52.4966 62.7916 53.0841 62.4735 54.1275C62.1553 55.171 62.7446 56.2751 63.7897 56.5938Z" fill="#EFEFF0"/>
<path d="M62.7258 54.2045C63.033 53.1969 64.0396 52.609 65.068 52.8537C65.0049 52.8345 64.9419 52.8153 64.9419 52.8153C63.8696 52.4883 62.7807 53.1199 62.4735 54.1275C62.1471 55.1981 62.7805 56.2861 63.7897 56.5938C63.8528 56.613 63.9159 56.6323 63.9159 56.6323C62.9259 56.2616 62.4186 55.2121 62.7258 54.2045Z" fill="#D8D9DA"/>
<path d="M50.7969 36.8018C51.842 37.1205 52.9472 36.533 53.2653 35.4895C53.5835 34.4461 52.9942 33.3419 51.9491 33.0233C50.904 32.7046 49.7988 33.2921 49.4807 34.3356C49.1625 35.379 49.7518 36.4831 50.7969 36.8018Z" fill="#EFEFF0"/>
<path d="M49.733 34.4125C50.0402 33.4049 51.0468 32.817 52.0752 33.0618C52.0122 33.0425 51.9491 33.0233 51.9491 33.0233C50.8768 32.6963 49.7879 33.3279 49.4807 34.3356C49.1543 35.4061 49.7877 36.4941 50.7969 36.8018C50.86 36.821 50.9231 36.8403 50.9231 36.8403C49.9961 36.4888 49.4258 35.4201 49.733 34.4125Z" fill="#D8D9DA"/>
<path d="M54.3026 67.8119C55.9399 68.3112 57.6712 67.3907 58.1697 65.756C58.6681 64.1214 57.7449 62.3915 56.1076 61.8922C54.4702 61.393 52.7389 62.3134 52.2404 63.9481C51.742 65.5828 52.6652 67.3127 54.3026 67.8119Z" fill="#EFEFF0"/>
<path d="M52.682 64.0828C53.162 62.5084 54.7445 61.6143 56.3599 61.9692C56.2968 61.9499 56.2337 61.9307 56.1076 61.8922C54.4676 61.3922 52.7397 62.3108 52.2404 63.9481C51.7412 65.5855 52.6626 67.3119 54.3026 67.8119C54.3656 67.8312 54.4287 67.8504 54.5549 67.8889C53.0163 67.2821 52.2019 65.6571 52.682 64.0828Z" fill="#D8D9DA"/>
<path opacity="0.91" d="M60.7144 68.9406C56.1891 71.3464 51.1976 71.8894 46.5847 70.9646C42.6666 57.5869 48.0048 40.0797 58.8274 31.2656C63.1715 33.072 66.9478 36.2883 69.3801 40.7468C74.7767 50.8585 70.9171 63.5165 60.7144 68.9406Z" fill="#00041E"/>
<defs>
<radialGradient id="paint0_radial_13_4561" cx="0" cy="0" r="1" gradientUnits="userSpaceOnUse" gradientTransform="translate(50.8938 50.5019) rotate(-73.0427) scale(31.0953 31.1455)">
<stop offset="0.0189189" stop-color="white"/>
<stop offset="0.9081" stop-color="white" stop-opacity="0"/>
</radialGradient>
</defs>
</svg>
