<svg width="101" height="101" viewBox="0 0 101 101" fill="none" xmlns="http://www.w3.org/2000/svg">
<path d="M41.3836 80.0103C57.8264 85.024 75.2138 75.7803 80.2194 59.3639C85.225 42.9476 75.9533 25.5751 59.5104 20.5615C43.0676 15.5478 25.6802 24.7915 20.6746 41.2078C15.669 57.6242 24.9407 74.9966 41.3836 80.0103Z" fill="url(#paint0_radial_13_4313)"/>
<g opacity="0.49">
<path d="M43.7839 72.1377C55.8721 75.8236 68.6548 69.0279 72.3348 56.9591C76.0147 44.8903 69.1985 32.1186 57.1102 28.4327C45.0219 24.7468 32.2392 31.5425 28.5593 43.6113C24.8793 55.6801 31.6956 68.4518 43.7839 72.1377Z" fill="white"/>
</g>
<path d="M44.36 70.249C55.4031 73.6162 67.0807 67.408 70.4425 56.3826C73.8043 45.3573 67.5773 33.6897 56.5342 30.3225C45.491 26.9553 33.8134 33.1634 30.4516 44.1888C27.0898 55.2142 33.3168 66.8817 44.36 70.249Z" fill="white"/>
<path d="M39.3264 45.381C41.8346 46.1458 44.4869 44.7357 45.2505 42.2316C46.014 39.7274 44.5997 37.0773 42.0915 36.3125C39.5833 35.5477 36.9309 36.9578 36.1674 39.462C35.4038 41.9662 36.8181 44.6162 39.3264 45.381Z" fill="#EFEFF0"/>
<path d="M36.8612 39.6735C37.5909 37.2805 40.0154 35.886 42.4699 36.4279C42.3438 36.3895 42.2176 36.351 42.0915 36.3125C39.5684 35.5432 36.9355 36.943 36.1674 39.462C35.3993 41.981 36.8033 44.6117 39.3264 45.381C39.4525 45.4195 39.5787 45.4579 39.7048 45.4964C37.3463 44.6396 36.1123 42.1296 36.8612 39.6735Z" fill="#D8D9DA"/>
<path d="M47.844 56.7876C50.7354 57.6692 53.7929 56.0438 54.6732 53.157C55.5534 50.2702 53.923 47.2153 51.0316 46.3337C48.1401 45.452 45.0826 47.0775 44.2024 49.9643C43.3221 52.851 44.9526 55.906 47.844 56.7876Z" fill="#EFEFF0"/>
<path d="M45.0224 50.2143C45.8673 47.4434 48.684 45.8932 51.41 46.4491C51.2839 46.4106 51.1577 46.3721 51.0316 46.3337C48.13 45.4489 45.0857 47.0674 44.2024 49.9643C43.3191 52.8611 44.9424 55.9029 47.844 56.7876C47.9701 56.8261 48.0963 56.8645 48.2225 56.903C45.65 55.8433 44.1775 52.9852 45.0224 50.2143Z" fill="#D8D9DA"/>
<path d="M59.8735 44.6935C61.8592 45.2989 63.9589 44.1826 64.5634 42.2001C65.1679 40.2177 64.0482 38.1197 62.0626 37.5143C60.0769 36.9088 57.9771 38.0251 57.3726 40.0076C56.7682 41.9901 57.8878 44.088 59.8735 44.6935Z" fill="#EFEFF0"/>
<path d="M57.8772 40.1614C58.4533 38.2722 60.3842 37.1401 62.3149 37.5912C62.2518 37.572 62.1256 37.5335 62.0626 37.5143C60.0441 36.8988 57.9679 38.0553 57.3726 40.0076C56.7582 42.0228 57.9181 44.0972 59.8735 44.6935C59.9366 44.7127 60.0627 44.7512 60.1258 44.7704C58.335 44.0867 57.3012 42.0507 57.8772 40.1614Z" fill="#D8D9DA"/>
<path d="M35.2035 57.5453C36.4228 57.9171 37.7121 57.2316 38.0833 56.0143C38.4545 54.797 37.7669 53.5088 36.5477 53.137C35.3284 52.7653 34.0391 53.4507 33.6679 54.668C33.2967 55.8853 33.9842 57.1735 35.2035 57.5453Z" fill="#EFEFF0"/>
<path d="M33.9833 54.7642C34.3481 53.5676 35.5192 52.8923 36.7369 53.1947C36.6738 53.1755 36.6107 53.1563 36.5477 53.137C35.2861 52.7524 34.0327 53.4715 33.6679 54.668C33.303 55.8645 34.005 57.1799 35.2035 57.5453C35.2666 57.5645 35.3297 57.5838 35.3927 57.603C34.2135 57.1746 33.6376 55.8977 33.9833 54.7642Z" fill="#D8D9DA"/>
<path d="M63.3503 56.3536C64.3954 56.6722 65.5005 56.0847 65.8187 55.0413C66.1368 53.9979 65.5475 52.8937 64.5024 52.575C63.4573 52.2564 62.3522 52.8439 62.034 53.8873C61.7159 54.9307 62.3052 56.0349 63.3503 56.3536Z" fill="#EFEFF0"/>
<path d="M62.2863 53.9642C62.5936 52.9566 63.6001 52.3688 64.6286 52.6135C64.5655 52.5943 64.5024 52.575 64.5024 52.575C63.4301 52.2481 62.3413 52.8797 62.034 53.8873C61.7268 54.8949 62.3411 56.0458 63.3503 56.3536C63.4134 56.3728 63.4765 56.392 63.4765 56.392C62.5495 56.0406 61.9791 54.9719 62.2863 53.9642Z" fill="#D8D9DA"/>
<path d="M50.3575 36.5616C51.4026 36.8802 52.5077 36.2927 52.8259 35.2493C53.144 34.2059 52.5547 33.1017 51.5096 32.783C50.4645 32.4644 49.3594 33.0519 49.0412 34.0953C48.7231 35.1387 49.3124 36.2429 50.3575 36.5616Z" fill="#EFEFF0"/>
<path d="M49.3569 34.1918C49.6641 33.1842 50.6707 32.5963 51.6991 32.841C51.6361 32.8218 51.573 32.8026 51.573 32.8026C50.5007 32.4756 49.4118 33.1072 49.1046 34.1149C48.7974 35.1225 49.4116 36.2734 50.4208 36.5811C50.4839 36.6003 50.547 36.6196 50.547 36.6196C49.557 36.2489 49.0497 35.1994 49.3569 34.1918Z" fill="#D8D9DA"/>
<path d="M53.8631 67.5717C55.5004 68.071 57.2318 67.1505 57.7302 65.5158C58.2287 63.8811 57.3054 62.1513 55.6681 61.652C54.0308 61.1528 52.2994 62.0732 51.801 63.7079C51.3026 65.3426 52.2258 67.0725 53.8631 67.5717Z" fill="#EFEFF0"/>
<path d="M52.2425 63.8425C52.7226 62.2681 54.3051 61.3741 55.9204 61.7289C55.8574 61.7097 55.7943 61.6905 55.6681 61.652C54.0281 61.1519 52.3002 62.0705 51.801 63.7079C51.3017 65.3453 52.2231 67.0716 53.8631 67.5717C53.9262 67.5909 53.9893 67.6102 54.1154 67.6486C52.5769 67.0419 51.7625 65.4169 52.2425 63.8425Z" fill="#D8D9DA"/>
<path d="M60.2953 68.7291C70.481 63.314 74.3351 50.6741 68.9036 40.4971C63.4721 30.32 50.8118 26.4597 40.6261 31.8748C30.4403 37.2899 26.5862 49.9298 32.0177 60.1068C37.4492 70.2838 50.1095 74.1441 60.2953 68.7291Z" fill="#00041E"/>
<defs>
<radialGradient id="paint0_radial_13_4313" cx="0" cy="0" r="1" gradientUnits="userSpaceOnUse" gradientTransform="translate(50.474 50.2741) rotate(-73.0427) scale(31.0954 31.1456)">
<stop offset="0.0189189" stop-color="white"/>
<stop offset="0.9081" stop-color="white" stop-opacity="0"/>
</radialGradient>
</defs>
</svg>
