<svg width="211" height="150" viewBox="0 0 211 150" fill="none" xmlns="http://www.w3.org/2000/svg">
<path d="M168.276 121.862L151.686 123.048L148.526 139.243L132.725 134.701L124.232 148.921L110.802 139.046L97.9637 149.514L88.6808 135.688L73.0777 141.218L69.1275 125.023L52.537 124.825L54.3145 108.234L38.7114 102.507L46.0192 87.4961L33.5762 76.6331L45.4266 65.1777L37.5263 50.7596L52.537 44.0443L49.9694 27.6511L66.5599 26.6636L69.7201 10.2704L85.5207 15.0106L94.0135 0.592524L107.444 10.4679L120.282 0L129.565 13.8256L145.168 8.29534L149.118 24.491L165.709 24.6885L163.931 41.2792L179.534 47.0069L172.226 62.0175L184.669 72.8805L172.621 84.336L180.719 98.754L165.511 105.469L168.276 121.862Z" fill="url(#paint0_linear_12_2892)"/>
<path d="M109.024 130.751C139.894 130.751 164.919 105.726 164.919 74.8557C164.919 43.9859 139.894 18.9609 109.024 18.9609C78.1547 18.9609 53.1299 43.9859 53.1299 74.8557C53.1299 105.726 78.1547 130.751 109.024 130.751Z" fill="url(#paint1_radial_12_2892)"/>
<path d="M117.715 68.93C103.494 57.2771 97.9638 39.6988 105.272 29.6259C112.579 19.553 130.157 20.5406 144.576 32.1935C158.796 43.8465 164.326 61.4247 157.018 71.4976C149.513 81.7681 131.935 80.583 117.715 68.93Z" fill="url(#paint2_radial_12_2892)"/>
<path opacity="0.4" d="M59.647 87.1007C61.6221 80.978 71.1025 83.5456 81.1754 92.8285C91.0507 102.111 97.7659 114.752 95.7909 121.072C93.8158 127.195 84.3355 124.627 74.2626 115.344C64.3872 105.864 57.6719 93.421 59.647 87.1007Z" fill="url(#paint3_radial_12_2892)"/>
<path d="M76.0404 107.642C75.0528 93.026 62.8075 81.373 47.9944 81.373C33.1814 81.373 20.9359 93.026 19.9483 107.642C8.88791 108.234 0 117.32 0 128.577C0 140.23 9.48043 149.513 20.9359 149.513H74.8554C86.5083 149.513 95.7911 140.033 95.7911 128.577C95.9886 117.32 87.2983 108.234 76.0404 107.642Z" fill="url(#paint4_radial_12_2892)"/>
<path d="M76.0404 107.642C75.0528 93.026 62.8075 81.373 47.9944 81.373C33.1814 81.373 20.9359 93.026 19.9483 107.642C8.88791 108.234 0 117.32 0 128.577C0 140.23 9.48043 149.513 20.9359 149.513H74.8554C86.5083 149.513 95.7911 140.033 95.7911 128.577C95.9886 117.32 87.2983 108.234 76.0404 107.642Z" fill="url(#paint5_radial_12_2892)"/>
<path d="M47.9948 110.21C40.0945 103.889 36.9344 94.0139 41.0821 88.4837C45.2297 82.9535 54.9076 83.546 62.8079 89.8662C70.7082 96.1865 73.8683 106.062 69.7206 111.592C65.7705 117.32 55.8951 116.727 47.9948 110.21Z" fill="url(#paint6_radial_12_2892)"/>
<path opacity="0.4" d="M76.2377 129.17C70.115 124.232 67.5474 116.529 70.905 111.986C74.0651 107.641 81.7679 108.036 87.8906 113.171C94.0133 118.109 96.581 125.812 93.2233 130.355C90.0632 134.7 82.558 134.107 76.2377 129.17Z" fill="url(#paint7_radial_12_2892)"/>
<path opacity="0.2" d="M15.0106 129.96C10.4679 122.849 5.13522 119.294 3.16015 122.257C1.18507 125.219 3.35758 133.317 7.90026 140.427C12.4429 147.538 17.7756 151.093 19.7507 148.13C21.7258 145.168 19.7508 137.07 15.0106 129.96Z" fill="url(#paint8_radial_12_2892)"/>
<path d="M195.532 48.5875C194.742 37.3295 185.262 28.2441 173.806 28.2441C162.351 28.2441 152.87 37.132 152.08 48.5875C143.588 48.9825 136.675 56.0928 136.675 64.7831C136.675 73.671 143.983 80.9788 152.87 80.9788H194.742C203.63 80.9788 210.938 73.671 210.938 64.7831C210.938 56.0928 204.222 49.18 195.532 48.5875Z" fill="url(#paint9_radial_12_2892)"/>
<path d="M195.532 48.5875C194.742 37.3295 185.262 28.2441 173.806 28.2441C162.351 28.2441 152.87 37.132 152.08 48.5875C143.588 48.9825 136.675 56.0928 136.675 64.7831C136.675 73.671 143.983 80.9788 152.87 80.9788H194.742C203.63 80.9788 210.938 73.671 210.938 64.7831C210.938 56.0928 204.222 49.18 195.532 48.5875Z" fill="url(#paint10_radial_12_2892)"/>
<path d="M173.806 50.7596C167.683 45.8219 165.313 38.3166 168.473 33.9714C171.633 29.6263 179.139 30.0213 185.261 34.959C191.384 39.8967 193.754 47.402 190.594 51.7472C187.434 56.0924 179.929 55.6973 173.806 50.7596Z" fill="url(#paint11_radial_12_2892)"/>
<path opacity="0.4" d="M195.729 65.3754C190.989 61.4252 189.014 55.5 191.582 52.1424C194.149 48.7847 200.074 49.1797 204.815 52.9324C209.555 56.8826 211.53 62.8078 208.962 66.1654C206.395 69.5231 200.469 69.1281 195.729 65.3754Z" fill="url(#paint12_radial_12_2892)"/>
<path opacity="0.2" d="M148.328 65.7711C144.773 60.2409 140.625 57.6733 139.045 59.8459C137.465 62.0185 139.045 68.3388 142.6 73.869C146.155 79.3992 150.303 81.9668 151.883 79.7942C153.463 77.6216 151.883 71.3014 148.328 65.7711Z" fill="url(#paint13_radial_12_2892)"/>
<defs>
<linearGradient id="paint0_linear_12_2892" x1="178.026" y1="-2.24271" x2="45.1852" y2="146.203" gradientUnits="userSpaceOnUse">
<stop stop-color="#FFBA24"/>
<stop offset="1" stop-color="#FF5500"/>
</linearGradient>
<radialGradient id="paint1_radial_12_2892" cx="0" cy="0" r="1" gradientUnits="userSpaceOnUse" gradientTransform="translate(121.916 39.6685) rotate(180) scale(106.273 106.273)">
<stop stop-color="#FFF4C3"/>
<stop offset="0.1559" stop-color="#FFE036"/>
<stop offset="1" stop-color="#FA761C"/>
</radialGradient>
<radialGradient id="paint2_radial_12_2892" cx="0" cy="0" r="1" gradientUnits="userSpaceOnUse" gradientTransform="translate(131.028 50.6027) rotate(126.034) scale(22.7571 33.1982)">
<stop stop-color="white"/>
<stop offset="1" stop-color="white" stop-opacity="0"/>
</radialGradient>
<radialGradient id="paint3_radial_12_2892" cx="0" cy="0" r="1" gradientUnits="userSpaceOnUse" gradientTransform="translate(77.6706 104.082) rotate(-136.789) scale(24.7462 10.5107)">
<stop stop-color="white"/>
<stop offset="1" stop-color="white" stop-opacity="0"/>
</radialGradient>
<radialGradient id="paint4_radial_12_2892" cx="0" cy="0" r="1" gradientUnits="userSpaceOnUse" gradientTransform="translate(60.1673 95.8096) rotate(180) scale(73.1613 53.4445)">
<stop stop-color="white"/>
<stop offset="0.198" stop-color="#D5F3FF"/>
<stop offset="1" stop-color="#85BCF1"/>
</radialGradient>
<radialGradient id="paint5_radial_12_2892" cx="0" cy="0" r="1" gradientUnits="userSpaceOnUse" gradientTransform="translate(76.7648 105.358) scale(83.1753 83.1756)">
<stop stop-color="#FFE036"/>
<stop offset="0.00517127" stop-color="#FFDF36" stop-opacity="0.9933"/>
<stop offset="0.1623" stop-color="#FDB92C" stop-opacity="0.789"/>
<stop offset="0.319" stop-color="#FC9C25" stop-opacity="0.5851"/>
<stop offset="0.4735" stop-color="#FB8720" stop-opacity="0.3841"/>
<stop offset="0.6247" stop-color="#FA7A1D" stop-opacity="0.1875"/>
<stop offset="0.7688" stop-color="#FA761C" stop-opacity="0"/>
</radialGradient>
<radialGradient id="paint6_radial_12_2892" cx="0" cy="0" r="1" gradientUnits="userSpaceOnUse" gradientTransform="translate(55.4815 100.075) rotate(126.034) scale(12.5916 18.3688)">
<stop stop-color="white"/>
<stop offset="1" stop-color="white" stop-opacity="0"/>
</radialGradient>
<radialGradient id="paint7_radial_12_2892" cx="0" cy="0" r="1" gradientUnits="userSpaceOnUse" gradientTransform="translate(82.0948 121.17) rotate(126.034) scale(9.89608 14.4365)">
<stop stop-color="white"/>
<stop offset="1" stop-color="white" stop-opacity="0"/>
</radialGradient>
<radialGradient id="paint8_radial_12_2892" cx="0" cy="0" r="1" gradientUnits="userSpaceOnUse" gradientTransform="translate(11.4867 135.098) rotate(-25.7093) scale(5.07253 14.7666)">
<stop stop-color="white"/>
<stop offset="1" stop-color="white" stop-opacity="0"/>
</radialGradient>
<radialGradient id="paint9_radial_12_2892" cx="0" cy="0" r="1" gradientUnits="userSpaceOnUse" gradientTransform="translate(183.23 39.4963) rotate(180) scale(56.647 41.3807)">
<stop stop-color="white"/>
<stop offset="0.198" stop-color="#D5F3FF"/>
<stop offset="1" stop-color="#85BCF1"/>
</radialGradient>
<radialGradient id="paint10_radial_12_2892" cx="0" cy="0" r="1" gradientUnits="userSpaceOnUse" gradientTransform="translate(146.222 58.9482) scale(75.699 75.6991)">
<stop stop-color="#FFE036"/>
<stop offset="0.00517127" stop-color="#FFDF36" stop-opacity="0.9933"/>
<stop offset="0.1623" stop-color="#FDB92C" stop-opacity="0.789"/>
<stop offset="0.319" stop-color="#FC9C25" stop-opacity="0.5851"/>
<stop offset="0.4735" stop-color="#FB8720" stop-opacity="0.3841"/>
<stop offset="0.6247" stop-color="#FA7A1D" stop-opacity="0.1875"/>
<stop offset="0.7688" stop-color="#FA761C" stop-opacity="0"/>
</radialGradient>
<radialGradient id="paint11_radial_12_2892" cx="0" cy="0" r="1" gradientUnits="userSpaceOnUse" gradientTransform="translate(179.604 42.7962) rotate(126.034) scale(9.75013 14.2236)">
<stop stop-color="white"/>
<stop offset="1" stop-color="white" stop-opacity="0"/>
</radialGradient>
<radialGradient id="paint12_radial_12_2892" cx="0" cy="0" r="1" gradientUnits="userSpaceOnUse" gradientTransform="translate(200.208 59.131) rotate(126.034) scale(7.66234 11.1779)">
<stop stop-color="white"/>
<stop offset="1" stop-color="white" stop-opacity="0"/>
</radialGradient>
<radialGradient id="paint13_radial_12_2892" cx="0" cy="0" r="1" gradientUnits="userSpaceOnUse" gradientTransform="translate(145.532 69.91) rotate(-25.7092) scale(3.92721 11.4325)">
<stop stop-color="white"/>
<stop offset="1" stop-color="white" stop-opacity="0"/>
</radialGradient>
</defs>
</svg>
