<svg width="24" height="24" viewBox="0 0 24 24" fill="none" xmlns="http://www.w3.org/2000/svg">
<path d="M13.4985 10.5005C12.5039 10.5005 11.5501 10.8956 10.8468 11.5988C10.1436 12.3021 9.74849 13.2559 9.74849 14.2505V15.0005H8.24999C7.65325 15.0005 7.08096 15.2375 6.659 15.6595C6.23704 16.0815 5.99999 16.6538 5.99999 17.2505C5.99999 17.8472 6.23704 18.4195 6.659 18.8415C7.08096 19.2634 7.65325 19.5005 8.24999 19.5005H18.75C19.3467 19.5005 19.919 19.2634 20.341 18.8415C20.7629 18.4195 21 17.8472 21 17.2505C21 16.6538 20.7629 16.0815 20.341 15.6595C19.919 15.2375 19.3467 15.0005 18.75 15.0005H17.25L17.2485 14.2505C17.2485 13.2559 16.8534 12.3021 16.1501 11.5988C15.4469 10.8956 14.4931 10.5005 13.4985 10.5005ZM8.30249 13.5005C8.48194 12.2501 9.10619 11.1064 10.0607 10.2791C11.0153 9.45177 12.2361 8.99634 13.4992 8.99634C14.7624 8.99634 15.9832 9.45177 16.9378 10.2791C17.8923 11.1064 18.5165 12.2501 18.696 13.5005H18.75C19.7446 13.5005 20.6984 13.8956 21.4016 14.5988C22.1049 15.3021 22.5 16.2559 22.5 17.2505C22.5 18.2451 22.1049 19.1989 21.4016 19.9021C20.6984 20.6054 19.7446 21.0005 18.75 21.0005H8.24999C7.25543 21.0005 6.3016 20.6054 5.59834 19.9021C4.89508 19.1989 4.49999 18.2451 4.49999 17.2505C4.49999 16.2559 4.89508 15.3021 5.59834 14.5988C6.3016 13.8956 7.25543 13.5005 8.24999 13.5005H8.30249ZM13.1805 4.23049C13.2268 4.14352 13.2555 4.04829 13.265 3.95022C13.2745 3.85216 13.2645 3.75319 13.2358 3.65896C13.207 3.56473 13.16 3.47709 13.0973 3.40104C13.0347 3.325 12.9577 3.26203 12.8707 3.21574C12.7838 3.16945 12.6885 3.14074 12.5905 3.13125C12.4924 3.12177 12.3934 3.13169 12.2992 3.16045C12.205 3.18921 12.1173 3.23626 12.0413 3.29889C11.9652 3.36152 11.9023 3.43852 11.856 3.52549L11.217 4.72999C11.1235 4.90563 11.1036 5.11121 11.1617 5.30151C11.2198 5.49182 11.3511 5.65125 11.5267 5.74474C11.7024 5.83823 11.908 5.85811 12.0983 5.80002C12.2886 5.74194 12.448 5.61063 12.5415 5.43499L13.1805 4.23049ZM7.52249 3.10999C7.49363 3.01573 7.44649 2.92808 7.38376 2.85204C7.32103 2.77601 7.24393 2.71307 7.15688 2.66683C7.06982 2.62058 6.97451 2.59194 6.87639 2.58253C6.77826 2.57312 6.67925 2.58313 6.58499 2.61199C6.49073 2.64085 6.40308 2.68799 6.32705 2.75072C6.25101 2.81345 6.18807 2.89054 6.14183 2.9776C6.09558 3.06465 6.06694 3.15996 6.05753 3.25809C6.04812 3.35621 6.05813 3.45523 6.08699 3.54949L6.48749 4.85449C6.54797 5.04198 6.6798 5.19815 6.85449 5.28924C7.02917 5.38033 7.23268 5.39903 7.42104 5.3413C7.6094 5.28357 7.76748 5.15405 7.86112 4.98072C7.95477 4.80739 7.97645 4.60417 7.92149 4.41499L7.52249 3.10999ZM8.99999 6.00049C10.374 6.00049 11.6025 6.61549 12.4275 7.58449C11.8435 7.67849 11.29 7.84249 10.767 8.07649C10.1888 7.65625 9.47957 7.45626 8.76702 7.51253C8.05446 7.5688 7.38541 7.87763 6.88035 8.38342C6.3753 8.8892 6.06742 9.55869 6.01217 10.2713C5.95692 10.984 6.15792 11.6929 6.57899 12.2705C6.09832 12.4321 5.64359 12.6625 5.22899 12.9545C4.7872 12.2754 4.53692 11.4897 4.50457 10.6802C4.47221 9.87071 4.65899 9.0675 5.04518 8.35534C5.43136 7.64318 6.00264 7.04849 6.69872 6.63401C7.3948 6.21954 8.18986 6.00067 8.99999 6.00049ZM2.72999 6.32149C2.64302 6.2752 2.54779 6.24649 2.44973 6.237C2.35166 6.22752 2.25269 6.23744 2.15846 6.2662C2.06424 6.29496 1.9766 6.34201 1.90055 6.40464C1.8245 6.46727 1.76153 6.54427 1.71524 6.63124C1.66895 6.71821 1.64024 6.81344 1.63075 6.9115C1.62127 7.00957 1.63119 7.10854 1.65995 7.20276C1.68872 7.29699 1.73576 7.38463 1.79839 7.46068C1.86102 7.53673 1.93802 7.5997 2.02499 7.64599L3.22949 8.28499C3.40513 8.37848 3.61071 8.39836 3.80102 8.34027C3.99132 8.28219 4.15075 8.15088 4.24424 7.97524C4.33773 7.7996 4.35762 7.59401 4.29953 7.40371C4.24144 7.21341 4.11013 7.05398 3.93449 6.96049L2.72999 6.32149ZM3.35399 13.016C3.54148 12.9555 3.69765 12.8237 3.78874 12.649C3.87983 12.4743 3.89853 12.2708 3.8408 12.0824C3.78307 11.8941 3.65355 11.736 3.48022 11.6424C3.30689 11.5487 3.10368 11.527 2.91449 11.582L1.60949 11.981C1.51402 12.0087 1.42502 12.0552 1.34766 12.1176C1.2703 12.18 1.20612 12.2572 1.15887 12.3447C1.11161 12.4322 1.08222 12.5282 1.0724 12.6271C1.06257 12.726 1.07252 12.8259 1.10165 12.921C1.13078 13.016 1.17852 13.1043 1.24209 13.1808C1.30566 13.2572 1.38379 13.3203 1.47195 13.3662C1.5601 13.4122 1.65651 13.4402 1.75557 13.4485C1.85464 13.4569 1.95437 13.4455 2.04899 13.415L3.35399 13.016Z" fill="white"/>
</svg>
