<svg width="182" height="186" viewBox="0 0 182 186" fill="none" xmlns="http://www.w3.org/2000/svg">
<path d="M143.983 49.5745C142.008 21.9234 119.097 0 90.8534 0C62.6099 0 39.5015 21.9234 37.7239 49.5745C16.7881 50.562 0 67.9428 0 89.2736C0 111.197 17.7757 128.973 39.699 128.973H142.205C164.129 128.973 181.904 111.197 181.904 89.2736C181.707 67.9428 165.116 50.562 143.983 49.5745Z" fill="url(#paint0_radial_12_3086)"/>
<path d="M90.8532 54.5124C75.8426 42.4644 70.1149 23.8986 77.8177 13.2332C85.5205 2.56776 104.086 3.75281 118.899 15.8008C133.91 27.8488 139.638 46.4145 131.935 57.08C124.232 67.7454 105.864 66.5604 90.8532 54.5124Z" fill="url(#paint1_radial_12_3086)"/>
<path opacity="0.4" d="M144.378 90.2617C132.527 80.7813 127.985 66.1657 134.107 57.8703C140.23 49.575 154.648 50.365 166.498 60.0429C178.349 69.5233 182.892 84.1389 176.769 92.4343C170.449 100.73 156.031 99.9396 144.378 90.2617Z" fill="url(#paint2_radial_12_3086)"/>
<path opacity="0.2" d="M28.2437 91.6434C19.5534 78.0153 9.48049 71.4975 5.72785 77.0278C1.97521 82.558 5.92536 97.9636 14.6157 111.394C23.306 125.022 33.3789 131.54 37.1315 126.01C40.8842 120.677 36.934 105.271 28.2437 91.6434Z" fill="url(#paint3_radial_12_3086)"/>
<path d="M46.4138 153.266C44.2412 157.217 39.3035 158.402 35.3534 156.229C31.4032 154.056 30.2182 149.119 32.3907 145.169C34.5633 141.218 48.5864 133.516 48.5864 133.516C48.5864 133.516 48.5863 149.514 46.4138 153.266Z" fill="url(#paint4_radial_12_3086)"/>
<path d="M32.5886 152.082C31.4036 148.724 31.9961 145.366 34.3662 144.379C36.5388 143.391 39.3039 145.366 40.6864 148.527C41.8715 151.884 41.0814 155.242 38.9088 156.229C36.7363 157.217 33.7737 155.242 32.5886 152.082Z" fill="url(#paint5_radial_12_3086)"/>
<path d="M80.3854 153.266C78.2129 157.217 73.2752 158.402 69.325 156.229C65.3749 154.056 64.1898 149.119 66.3624 145.169C68.535 141.218 82.558 133.516 82.558 133.516C82.558 133.516 82.558 149.514 80.3854 153.266Z" fill="url(#paint6_radial_12_3086)"/>
<path d="M66.5603 152.082C65.3752 148.724 65.9678 145.366 68.3379 144.379C70.5105 143.391 73.2756 145.366 74.6581 148.527C75.8432 151.884 75.0531 155.242 72.8806 156.229C70.708 157.217 67.7453 155.242 66.5603 152.082Z" fill="url(#paint7_radial_12_3086)"/>
<path d="M114.356 153.266C112.184 157.217 107.246 158.402 103.296 156.229C99.3456 154.056 98.1605 149.119 100.333 145.169C102.506 141.218 116.529 133.516 116.529 133.516C116.529 133.516 116.529 149.514 114.356 153.266Z" fill="url(#paint8_radial_12_3086)"/>
<path d="M100.531 152.082C99.346 148.724 99.9385 145.366 102.309 144.379C104.481 143.391 107.246 145.366 108.629 148.527C109.814 151.884 109.024 155.242 106.851 156.229C104.481 157.217 101.716 155.242 100.531 152.082Z" fill="url(#paint9_radial_12_3086)"/>
<path d="M148.328 153.266C146.155 157.217 141.218 158.402 137.267 156.229C133.317 154.056 132.132 149.119 134.305 145.169C136.477 141.218 150.5 133.516 150.5 133.516C150.5 133.516 150.5 149.514 148.328 153.266Z" fill="url(#paint10_radial_12_3086)"/>
<path d="M134.503 152.082C133.318 148.724 133.91 145.366 136.28 144.379C138.453 143.391 141.218 145.366 142.6 148.527C143.786 151.884 142.995 155.242 140.823 156.229C138.453 157.217 135.688 155.242 134.503 152.082Z" fill="url(#paint11_radial_12_3086)"/>
<path d="M63.4001 181.905C61.2275 185.855 56.2898 187.04 52.3397 184.868C48.3895 182.695 47.2045 177.56 49.3771 173.807C51.5497 169.857 65.5727 162.154 65.5727 162.154C65.5727 162.154 65.5727 177.955 63.4001 181.905Z" fill="url(#paint12_radial_12_3086)"/>
<path d="M49.5749 180.522C48.3899 177.164 48.9824 173.807 51.3525 172.819C53.5251 171.832 56.2902 173.807 57.6727 176.967C58.8578 180.325 58.0678 183.682 55.8952 184.67C53.7226 185.657 50.76 183.88 49.5749 180.522Z" fill="url(#paint13_radial_12_3086)"/>
<path d="M97.3718 181.905C95.1992 185.855 90.2615 187.04 86.3114 184.868C82.3612 182.695 81.1762 177.56 83.3488 173.807C85.5213 169.857 99.5444 162.154 99.5444 162.154C99.5444 162.154 99.5444 177.955 97.3718 181.905Z" fill="url(#paint14_radial_12_3086)"/>
<path d="M83.5466 180.522C82.3616 177.164 82.9541 173.807 85.3242 172.819C87.4968 171.832 90.2619 173.807 91.6444 176.967C92.8295 180.325 92.0394 183.682 89.8669 184.67C87.6943 185.657 84.7317 183.88 83.5466 180.522Z" fill="url(#paint15_radial_12_3086)"/>
<path d="M131.342 181.905C129.17 185.855 124.232 187.04 120.282 184.868C116.332 182.695 115.147 177.56 117.319 173.807C119.492 169.857 133.515 162.154 133.515 162.154C133.515 162.154 133.515 177.955 131.342 181.905Z" fill="url(#paint16_radial_12_3086)"/>
<path d="M117.517 180.522C116.332 177.164 116.925 173.807 119.295 172.819C121.467 171.832 124.233 173.807 125.615 176.967C126.8 180.325 126.01 183.682 123.838 184.67C121.467 185.657 118.702 183.88 117.517 180.522Z" fill="url(#paint17_radial_12_3086)"/>
<defs>
<radialGradient id="paint0_radial_12_3086" cx="0" cy="0" r="1" gradientUnits="userSpaceOnUse" gradientTransform="translate(113.747 27.0297) rotate(180) scale(138.76 101.365)">
<stop stop-color="white"/>
<stop offset="0.198" stop-color="#D5F3FF"/>
<stop offset="1" stop-color="#85BCF1"/>
</radialGradient>
<radialGradient id="paint1_radial_12_3086" cx="0" cy="0" r="1" gradientUnits="userSpaceOnUse" gradientTransform="translate(104.859 35.117) rotate(126.034) scale(23.8816 34.8386)">
<stop stop-color="white"/>
<stop offset="1" stop-color="white" stop-opacity="0"/>
</radialGradient>
<radialGradient id="paint2_radial_12_3086" cx="0" cy="0" r="1" gradientUnits="userSpaceOnUse" gradientTransform="translate(155.339 75.1305) rotate(126.034) scale(18.7691 27.3806)">
<stop stop-color="white"/>
<stop offset="1" stop-color="white" stop-opacity="0"/>
</radialGradient>
<radialGradient id="paint3_radial_12_3086" cx="0" cy="0" r="1" gradientUnits="userSpaceOnUse" gradientTransform="translate(21.4485 101.578) rotate(-25.7093) scale(9.62031 28.0056)">
<stop stop-color="white"/>
<stop offset="1" stop-color="white" stop-opacity="0"/>
</radialGradient>
<radialGradient id="paint4_radial_12_3086" cx="0" cy="0" r="1" gradientUnits="userSpaceOnUse" gradientTransform="translate(35.5539 151.504) rotate(30.0008) scale(19.5348 19.5349)">
<stop stop-color="#D0F2FF"/>
<stop offset="0.198" stop-color="#D5F3FF"/>
<stop offset="1" stop-color="#85BCF1"/>
</radialGradient>
<radialGradient id="paint5_radial_12_3086" cx="0" cy="0" r="1" gradientUnits="userSpaceOnUse" gradientTransform="translate(36.586 150.231) rotate(156.037) scale(4.36498 6.36747)">
<stop stop-color="white"/>
<stop offset="1" stop-color="white" stop-opacity="0"/>
</radialGradient>
<radialGradient id="paint6_radial_12_3086" cx="0" cy="0" r="1" gradientUnits="userSpaceOnUse" gradientTransform="translate(69.5111 151.505) rotate(30.0008) scale(19.5348 19.5349)">
<stop stop-color="#D0F2FF"/>
<stop offset="0.198" stop-color="#D5F3FF"/>
<stop offset="1" stop-color="#85BCF1"/>
</radialGradient>
<radialGradient id="paint7_radial_12_3086" cx="0" cy="0" r="1" gradientUnits="userSpaceOnUse" gradientTransform="translate(70.5436 150.231) rotate(156.037) scale(4.36498 6.36747)">
<stop stop-color="white"/>
<stop offset="1" stop-color="white" stop-opacity="0"/>
</radialGradient>
<radialGradient id="paint8_radial_12_3086" cx="0" cy="0" r="1" gradientUnits="userSpaceOnUse" gradientTransform="translate(103.468 151.505) rotate(30.0008) scale(19.5356 19.5357)">
<stop stop-color="#D0F2FF"/>
<stop offset="0.198" stop-color="#D5F3FF"/>
<stop offset="1" stop-color="#85BCF1"/>
</radialGradient>
<radialGradient id="paint9_radial_12_3086" cx="0" cy="0" r="1" gradientUnits="userSpaceOnUse" gradientTransform="translate(104.5 150.231) rotate(156.037) scale(4.36497 6.36746)">
<stop stop-color="white"/>
<stop offset="1" stop-color="white" stop-opacity="0"/>
</radialGradient>
<radialGradient id="paint10_radial_12_3086" cx="0" cy="0" r="1" gradientUnits="userSpaceOnUse" gradientTransform="translate(137.426 151.505) rotate(30.0008) scale(19.5348 19.5349)">
<stop stop-color="#D0F2FF"/>
<stop offset="0.198" stop-color="#D5F3FF"/>
<stop offset="1" stop-color="#85BCF1"/>
</radialGradient>
<radialGradient id="paint11_radial_12_3086" cx="0" cy="0" r="1" gradientUnits="userSpaceOnUse" gradientTransform="translate(138.458 150.231) rotate(156.037) scale(4.36497 6.36746)">
<stop stop-color="white"/>
<stop offset="1" stop-color="white" stop-opacity="0"/>
</radialGradient>
<radialGradient id="paint12_radial_12_3086" cx="0" cy="0" r="1" gradientUnits="userSpaceOnUse" gradientTransform="translate(52.5334 180.036) rotate(30.0008) scale(19.5348 19.5349)">
<stop stop-color="#D0F2FF"/>
<stop offset="0.198" stop-color="#D5F3FF"/>
<stop offset="1" stop-color="#85BCF1"/>
</radialGradient>
<radialGradient id="paint13_radial_12_3086" cx="0" cy="0" r="1" gradientUnits="userSpaceOnUse" gradientTransform="translate(53.5649 178.762) rotate(156.037) scale(4.36497 6.36746)">
<stop stop-color="white"/>
<stop offset="1" stop-color="white" stop-opacity="0"/>
</radialGradient>
<radialGradient id="paint14_radial_12_3086" cx="0" cy="0" r="1" gradientUnits="userSpaceOnUse" gradientTransform="translate(86.4911 180.035) rotate(30.0008) scale(19.5351 19.5351)">
<stop stop-color="#D0F2FF"/>
<stop offset="0.198" stop-color="#D5F3FF"/>
<stop offset="1" stop-color="#85BCF1"/>
</radialGradient>
<radialGradient id="paint15_radial_12_3086" cx="0" cy="0" r="1" gradientUnits="userSpaceOnUse" gradientTransform="translate(87.5234 178.762) rotate(156.037) scale(4.36526 6.36788)">
<stop stop-color="white"/>
<stop offset="1" stop-color="white" stop-opacity="0"/>
</radialGradient>
<radialGradient id="paint16_radial_12_3086" cx="0" cy="0" r="1" gradientUnits="userSpaceOnUse" gradientTransform="translate(120.448 180.036) rotate(30.0008) scale(19.5348 19.5349)">
<stop stop-color="#D0F2FF"/>
<stop offset="0.198" stop-color="#D5F3FF"/>
<stop offset="1" stop-color="#85BCF1"/>
</radialGradient>
<radialGradient id="paint17_radial_12_3086" cx="0" cy="0" r="1" gradientUnits="userSpaceOnUse" gradientTransform="translate(121.48 178.762) rotate(156.037) scale(4.36526 6.36788)">
<stop stop-color="white"/>
<stop offset="1" stop-color="white" stop-opacity="0"/>
</radialGradient>
</defs>
</svg>
