<svg width="24" height="24" viewBox="0 0 24 24" fill="none" xmlns="http://www.w3.org/2000/svg">
<path d="M12.75 22.5002C12.6222 22.5002 12.4965 22.4674 12.3849 22.4052C12.2733 22.3429 12.1795 22.2531 12.1123 22.1444C12.0452 22.0357 12.0069 21.9116 12.0011 21.784C11.9954 21.6563 12.0223 21.5293 12.0795 21.415L13.5795 18.415C13.6216 18.3238 13.6816 18.242 13.7559 18.1744C13.8303 18.1069 13.9174 18.055 14.0122 18.0217C14.107 17.9885 14.2075 17.9746 14.3077 17.981C14.408 17.9873 14.5059 18.0138 14.5957 18.0587C14.6856 18.1036 14.7655 18.1661 14.8307 18.2425C14.8959 18.3189 14.9451 18.4076 14.9754 18.5033C15.0057 18.5991 15.0165 18.7 15.007 18.8C14.9976 18.9 14.9681 18.9971 14.9205 19.0855L13.4205 22.0855C13.3582 22.21 13.2625 22.3148 13.1441 22.3881C13.0257 22.4613 12.8892 22.5001 12.75 22.5002ZM5.99997 22.5002C5.87217 22.5002 5.74652 22.4674 5.63492 22.4052C5.52332 22.3429 5.42949 22.2531 5.36232 22.1444C5.29515 22.0357 5.25688 21.9116 5.25113 21.784C5.24538 21.6563 5.27234 21.5293 5.32947 21.415L6.82947 18.415C6.87159 18.3238 6.9316 18.242 7.00593 18.1744C7.08026 18.1069 7.16741 18.055 7.26219 18.0217C7.35698 17.9885 7.45747 17.9746 7.55772 17.981C7.65796 17.9873 7.7559 18.0138 7.84574 18.0587C7.93558 18.1036 8.01548 18.1661 8.0807 18.2425C8.14592 18.3189 8.19514 18.4076 8.22542 18.5033C8.25571 18.5991 8.26645 18.7 8.25701 18.8C8.24757 18.9 8.21814 18.9971 8.17047 19.0855L6.67047 22.0855C6.60822 22.21 6.51253 22.3148 6.39411 22.3881C6.27569 22.4613 6.13921 22.5001 5.99997 22.5002Z" fill="white"/>
<path d="M22.5001 11.625C22.495 10.5031 22.105 9.41687 21.3951 8.54806C20.6852 7.67925 19.6985 7.08053 18.6001 6.85203C18.2805 5.33837 17.4503 3.98055 16.2487 3.00616C15.0471 2.03176 13.5471 1.5 12.0001 1.5C10.453 1.5 8.95301 2.03176 7.7514 3.00616C6.5498 3.98055 5.71964 5.33837 5.40006 6.85203C4.39893 7.05498 3.48703 7.56774 2.79349 8.3177C2.09995 9.06766 1.65993 10.0168 1.53575 11.0307C1.41156 12.0446 1.6095 13.0719 2.10153 13.9671C2.59357 14.8623 3.35476 15.58 4.27731 16.0185L3.07956 18.4148C3.03462 18.503 3.00759 18.5992 3.00001 18.6979C2.99244 18.7966 3.00448 18.8958 3.03544 18.9898C3.06639 19.0838 3.11565 19.1708 3.18038 19.2457C3.2451 19.3206 3.32401 19.3819 3.41256 19.4262C3.5011 19.4704 3.59753 19.4967 3.69628 19.5035C3.79502 19.5103 3.89414 19.4975 3.98792 19.4658C4.08169 19.4341 4.16827 19.3842 4.24265 19.3189C4.31703 19.2535 4.37775 19.1742 4.42131 19.0853L5.71281 16.5H10.7866L9.82956 18.4148C9.78462 18.503 9.75759 18.5992 9.75001 18.6979C9.74244 18.7966 9.75448 18.8958 9.78544 18.9898C9.81639 19.0838 9.86565 19.1708 9.93038 19.2457C9.9951 19.3206 10.074 19.3819 10.1626 19.4262C10.2511 19.4704 10.3475 19.4967 10.4463 19.5035C10.545 19.5103 10.6441 19.4975 10.7379 19.4658C10.8317 19.4341 10.9183 19.3842 10.9926 19.3189C11.067 19.2535 11.1278 19.1742 11.1713 19.0853L12.4636 16.5H17.5366L16.5796 18.4148C16.5346 18.503 16.5076 18.5992 16.5 18.6979C16.4924 18.7966 16.5045 18.8958 16.5354 18.9898C16.5664 19.0838 16.6157 19.1708 16.6804 19.2457C16.7451 19.3206 16.824 19.3819 16.9126 19.4262C17.0011 19.4704 17.0975 19.4967 17.1963 19.5035C17.295 19.5103 17.3941 19.4975 17.4879 19.4658C17.5817 19.4341 17.6683 19.3842 17.7426 19.3189C17.817 19.2535 17.8778 19.1742 17.9213 19.0853L19.3793 16.1678C20.2965 15.8129 21.0851 15.1894 21.6419 14.3788C22.1988 13.5683 22.4979 12.6084 22.5001 11.625ZM17.6251 15H6.37506C5.50489 14.9979 4.6692 14.6597 4.04257 14.0559C3.41593 13.4522 3.04682 12.6296 3.01236 11.7602C2.97789 10.8907 3.28073 10.0415 3.85762 9.39005C4.4345 8.7386 5.24079 8.33525 6.10806 8.26428L6.72006 8.21628L6.79431 7.60728C6.95086 6.33679 7.56659 5.1674 8.5255 4.31939C9.48442 3.47138 10.7203 3.00328 12.0004 3.00328C13.2805 3.00328 14.5164 3.47138 15.4754 4.31939C16.4343 5.1674 17.05 6.33679 17.2066 7.60728L17.2808 8.21628L17.8921 8.26428C18.7593 8.33525 19.5656 8.7386 20.1425 9.39005C20.7194 10.0415 21.0222 10.8907 20.9878 11.7602C20.9533 12.6296 20.5842 13.4522 19.9575 14.0559C19.3309 14.6597 18.4952 14.9979 17.6251 15Z" fill="white"/>
</svg>
