<svg width="128" height="145" viewBox="0 0 128 145" fill="none" xmlns="http://www.w3.org/2000/svg">
<path d="M123.918 99.3465L110.685 91.6437L114.832 89.2736C118.19 87.2985 119.178 83.1509 117.4 79.9908C115.425 76.8306 111.277 75.6456 108.117 77.4231L97.2543 83.7434L87.1814 78.0157C87.5764 76.2381 87.7739 74.263 87.7739 72.4854C87.7739 70.5103 87.5764 68.7328 87.1814 66.9552L97.2543 61.2275L108.117 67.5477C109.105 68.1403 110.29 68.5353 111.475 68.5353C113.845 68.5353 116.215 67.3503 117.4 65.1777C119.375 62.0175 118.19 57.6723 114.832 55.8948L110.685 53.5247L123.918 45.8219C127.078 43.8468 128.263 39.6991 126.485 36.539C124.51 33.1814 120.363 32.1938 117.203 33.9714L103.97 41.6742V36.934C103.97 33.1814 101.007 30.2187 97.2543 30.2187C93.5016 30.2187 90.539 33.1814 90.539 36.934V49.5745L80.4661 55.3023C77.701 52.7347 74.3434 50.7596 70.7883 49.5745V37.9215L81.6512 31.6013C85.0088 29.6262 85.9963 25.4785 84.2188 22.3184C82.2437 18.9608 78.0961 17.9732 74.936 19.7508L70.7883 22.1209V6.71526C70.7883 2.96261 67.8257 0 64.073 0C60.3204 0 57.3577 2.96261 57.3577 6.71526V22.1209L53.2101 19.7508C50.05 17.7757 45.7048 18.9608 43.9272 22.3184C41.9522 25.4785 43.1372 29.8237 46.4948 31.6013L57.3577 37.9215V49.5745C53.6051 50.7596 50.445 52.5371 47.6799 55.3023L37.607 49.377V36.7365C37.607 32.9838 34.6444 30.0212 30.8917 30.0212C27.1391 30.0212 24.1765 32.9838 24.1765 36.7365V41.4767L10.9435 33.7739C7.58584 31.7988 3.43822 32.9838 1.66066 36.3415C-0.314418 39.5016 0.870603 43.8468 4.22823 45.6243L17.4613 53.3272L13.3136 55.6973C10.1535 57.6724 8.96845 61.82 10.746 64.9801C11.9311 67.1527 14.3011 68.3378 16.6712 68.3378C17.8563 68.3378 19.0413 68.1403 20.0288 67.3503L30.8917 61.03L40.9646 66.7577C40.5696 68.5353 40.1746 70.5104 40.1746 72.288C40.1746 74.263 40.3721 76.0406 40.9646 77.8182L30.1017 83.7434L19.2388 77.4231C15.8812 75.4481 11.7335 76.6331 9.95594 79.9908C7.98086 83.1509 9.16594 87.496 12.5236 89.2736L16.6712 91.6437L3.43821 99.3465C0.0805851 101.322 -0.906928 105.469 0.870639 108.629C2.05568 110.802 4.42577 111.987 6.79586 111.987C7.98091 111.987 9.16592 111.79 10.1535 111L23.3865 103.297V108.037C23.3865 111.79 26.3491 114.752 30.1017 114.752C33.8544 114.752 37.0145 111.79 37.0145 108.037V95.3964L47.0874 89.4711C49.8525 92.0387 53.2101 94.0138 56.7652 95.1989V106.852L45.9023 113.172C42.5447 115.147 41.5572 119.295 43.3347 122.455C45.3098 125.813 49.4574 126.8 52.6176 125.023L56.7652 122.653V138.058C56.7652 141.811 59.7278 144.773 63.4805 144.773C67.2331 144.773 70.1957 141.811 70.1957 138.058V122.653L74.3434 125.023C75.3309 125.615 76.516 126.01 77.701 126.01C80.0711 126.01 82.4412 124.825 83.6263 122.653C85.6013 119.492 84.4163 115.147 81.0586 113.37L70.1957 107.049V95.3964C73.9484 94.2113 77.1085 92.4338 79.8736 89.6687L89.9465 95.3964V108.037C89.9465 111.79 92.9091 114.752 96.6618 114.752C100.414 114.752 103.377 111.79 103.377 108.037V103.494L116.61 111.197C117.598 111.79 118.783 112.185 119.968 112.185C122.338 112.185 124.708 111 125.893 108.827C128.263 105.469 127.078 101.322 123.918 99.3465ZM63.4805 82.7559C57.7528 82.7559 53.0126 78.0157 53.0126 72.288C53.0126 66.5602 57.7528 61.82 63.4805 61.82C69.2082 61.82 73.9484 66.5602 73.9484 72.288C73.9484 78.2132 69.2082 82.7559 63.4805 82.7559Z" fill="url(#paint0_radial_12_3164)"/>
<defs>
<radialGradient id="paint0_radial_12_3164" cx="0" cy="0" r="1" gradientUnits="userSpaceOnUse" gradientTransform="translate(105.141 43.4379) scale(123.747 123.748)">
<stop stop-color="#28CBE9"/>
<stop offset="1" stop-color="#0A4FBB"/>
</radialGradient>
</defs>
</svg>
