<svg width="30" height="30" viewBox="0 0 30 30" fill="none" xmlns="http://www.w3.org/2000/svg">
<path d="M15 5C9.47734 5 5 9.44504 5 14.9278C5 16.124 5.21332 17.2712 5.60398 18.3333H24.396C24.7867 17.2712 25 16.124 25 14.9278C25 9.44504 20.5227 5 15 5Z" fill="white" fill-opacity="0.5"/>
<path d="M20.0001 9.95801L16.9022 13.1796C16.3992 12.6569 15.7048 12.3334 14.9374 12.3334C13.4028 12.3334 12.1588 13.6271 12.1588 15.223C12.1588 15.5714 12.2181 15.9052 12.3265 16.2141L8.20993 17.7773C7.93027 16.9806 7.77783 16.1203 7.77783 15.223C7.77783 11.1109 10.9832 7.77734 14.9374 7.77734C16.9145 7.77734 18.7042 8.61086 20.0001 9.95801Z" fill="white" fill-opacity="0.52"/>
<path d="M22.2222 15.2373C22.2222 16.1299 22.0754 16.9856 21.8063 17.7778L17.8439 16.2232C17.9483 15.9159 18.0053 15.5838 18.0053 15.2373C18.0053 14.4433 17.706 13.7251 17.2222 13.2047L20.2039 10C21.4507 11.3405 22.2222 13.192 22.2222 15.2373Z" fill="white" fill-opacity="0.52"/>
<path d="M16.9752 13.3331C16.8962 13.3331 16.8172 13.303 16.7569 13.2427C16.6364 13.1221 16.6364 12.9268 16.7569 12.8062L20.5841 8.97903C20.7046 8.85855 20.9 8.85855 21.0205 8.97903C21.1411 9.09962 21.1411 9.29501 21.0205 9.41553L17.1934 13.2428C17.1332 13.303 17.0542 13.3331 16.9752 13.3331Z" fill="white"/>
<path d="M24.4446 18.46C23.0378 22.2762 19.3401 25.0004 15.0001 25.0004C10.6601 25.0004 6.96245 22.2762 5.55566 18.46L12.3224 16.0132C12.2111 15.7115 12.1504 15.3854 12.1504 15.0451C12.1504 13.4863 13.4263 12.2227 15.0001 12.2227C15.7873 12.2227 16.4994 12.5386 17.0153 13.0492C17.5309 13.5602 17.8498 14.2655 17.8498 15.0451C17.8498 15.3854 17.7891 15.7115 17.6779 16.0132L24.4446 18.46Z" fill="white"/>
<path d="M15 13.8887C15.6138 13.8887 16.1111 14.386 16.1111 14.9998C16.1111 15.6135 15.6138 16.1109 15 16.1109C14.3863 16.1109 13.8889 15.6135 13.8889 14.9998C13.8889 14.386 14.3863 13.8887 15 13.8887Z" fill="#2D7DA7"/>
</svg>
