<svg width="24" height="24" viewBox="0 0 24 24" fill="none" xmlns="http://www.w3.org/2000/svg">
<g clip-path="url(#clip0_8033_599)">
<path d="M5.625 16.5L4.5 18.75M6.375 20.25L5.625 21.75M18.75 16.5L17.625 18.75M19.5 20.25L18.75 21.75M9.75 14.25L9 18.75H11.25V22.5L15 17.25H12.75L13.5 14.25M18.953 7.16672H18.3844C18.0333 3.97735 15.2878 1.5 12 1.5C10.679 1.49873 9.3901 1.90667 8.31041 2.66773C7.23072 3.4288 6.41328 4.50562 5.97047 5.75016H5.75625C3.41531 5.75016 1.5 7.66266 1.5 9.99985C1.5 12.3375 3.41531 14.25 5.75625 14.25H18.953C20.9062 14.25 22.5 12.6563 22.5 10.7081C22.5 8.76047 20.9062 7.16672 18.953 7.16672Z" stroke="white" stroke-width="1.5" stroke-linecap="round" stroke-linejoin="round"/>
</g>
<defs>
<clipPath id="clip0_8033_599">
<rect width="24" height="24" fill="white"/>
</clipPath>
</defs>
</svg>
