<svg width="182" height="186" viewBox="0 0 182 186" fill="none" xmlns="http://www.w3.org/2000/svg">
<path d="M103.494 139.244H101.716H94.8034L109.024 111.593C109.616 110.407 110.209 109.025 110.407 107.642C112.184 99.1495 106.851 90.6567 98.161 88.8791C89.6682 87.1015 81.1754 92.4342 79.3978 101.125L69.9175 145.564L69.72 146.946C69.5225 147.539 69.5225 148.329 69.5225 148.922C69.5225 154.254 73.8677 158.599 79.2004 158.599H89.6682L83.9405 182.3C83.743 183.09 84.138 184.078 84.7306 184.671C85.7181 185.461 87.1006 185.263 87.8906 184.276L110.407 153.069C111.394 151.687 111.987 149.909 111.987 147.934C111.987 142.996 108.234 139.244 103.494 139.244Z" fill="url(#paint0_linear_12_3115)"/>
<path d="M143.983 49.5745C142.008 21.9234 118.9 0 90.8534 0C62.6099 0 39.5016 21.9234 37.724 49.5745C16.7882 50.562 0 67.9428 0 89.2736C0 111.197 17.7757 128.973 39.6991 128.973H142.205C164.129 128.973 181.904 111.197 181.904 89.2736C181.707 67.9428 164.919 50.562 143.983 49.5745Z" fill="url(#paint1_radial_12_3115)"/>
<path opacity="0.6" d="M94.4089 54.5124C79.3983 42.4644 73.6706 23.8986 81.3733 13.2332C89.0761 2.56776 107.642 3.75281 122.455 15.8008C137.465 27.8488 143.193 46.4145 135.49 57.08C127.788 67.7454 109.419 66.5604 94.4089 54.5124Z" fill="url(#paint2_radial_12_3115)"/>
<path opacity="0.4" d="M144.18 90.2617C132.33 80.7813 127.787 66.1657 133.91 57.8703C140.033 49.575 154.451 50.365 166.301 60.0429C178.152 69.5233 182.694 84.1389 176.572 92.4343C170.449 100.73 156.031 99.9396 144.18 90.2617Z" fill="url(#paint3_radial_12_3115)"/>
<path opacity="0.2" d="M28.2438 91.6434C19.5534 78.0153 9.48049 71.4975 5.72785 77.0278C1.97521 82.558 5.92536 97.9636 14.6157 111.394C23.306 125.022 33.379 131.54 37.1316 126.01C40.8842 120.677 36.9341 105.271 28.2438 91.6434Z" fill="url(#paint4_radial_12_3115)"/>
<path d="M45.032 154.847C42.8594 158.797 37.9217 159.982 33.9715 157.809C30.0214 155.637 28.8363 150.699 31.0089 146.749C33.1815 142.799 47.2045 135.096 47.2045 135.096C47.2045 135.096 47.2046 150.896 45.032 154.847Z" fill="url(#paint5_radial_12_3115)"/>
<path d="M31.2068 153.463C30.0218 150.106 30.6142 146.748 32.9843 145.761C35.1569 144.773 37.922 146.748 39.3046 149.908C40.4896 153.266 39.6995 156.624 37.5269 157.611C35.3544 158.599 32.3918 156.821 31.2068 153.463Z" fill="url(#paint6_radial_12_3115)"/>
<path d="M58.0671 178.548C55.8945 182.498 50.9568 183.683 47.0067 181.51C43.0565 179.338 41.8715 174.4 44.0441 170.45C46.2167 166.5 60.2396 158.797 60.2396 158.797C60.2396 158.797 60.4371 174.598 58.0671 178.548Z" fill="url(#paint7_radial_12_3115)"/>
<path d="M44.2419 177.165C43.0569 173.807 43.6494 170.449 46.0195 169.462C48.1921 168.474 50.9571 170.449 52.3397 173.61C53.5247 176.967 52.7348 180.325 50.5622 181.312C48.3896 182.3 45.6245 180.522 44.2419 177.165Z" fill="url(#paint8_radial_12_3115)"/>
<path d="M149.711 154.847C147.538 158.797 142.6 159.982 138.65 157.809C134.7 155.637 133.515 150.699 135.688 146.749C137.86 142.799 151.883 135.096 151.883 135.096C151.883 135.096 152.081 150.896 149.711 154.847Z" fill="url(#paint9_radial_12_3115)"/>
<path d="M135.886 153.463C134.7 150.106 135.293 146.748 137.663 145.761C139.836 144.773 142.601 146.748 143.983 149.908C145.168 153.266 144.378 156.624 142.206 157.611C140.033 158.599 137.268 156.821 135.886 153.463Z" fill="url(#paint10_radial_12_3115)"/>
<path d="M127.195 178.548C125.022 182.498 120.085 183.683 116.135 181.51C112.184 179.338 110.999 174.4 113.172 170.45C115.345 166.5 129.368 158.797 129.368 158.797C129.368 158.797 129.565 174.598 127.195 178.548Z" fill="url(#paint11_radial_12_3115)"/>
<path d="M113.37 177.165C112.185 173.807 112.777 170.449 115.147 169.462C117.32 168.474 120.085 170.449 121.468 173.61C122.653 176.967 121.863 180.325 119.69 181.312C117.518 182.3 114.752 180.522 113.37 177.165Z" fill="url(#paint12_radial_12_3115)"/>
<defs>
<linearGradient id="paint0_linear_12_3115" x1="77.1668" y1="183.429" x2="99.9285" y2="111.754" gradientUnits="userSpaceOnUse">
<stop offset="0.1559" stop-color="#FFE036"/>
<stop offset="1" stop-color="#FA761C"/>
</linearGradient>
<radialGradient id="paint1_radial_12_3115" cx="0" cy="0" r="1" gradientUnits="userSpaceOnUse" gradientTransform="translate(113.683 27.0297) rotate(180) scale(138.761 101.365)">
<stop stop-color="#B6CCD2"/>
<stop offset="0.198" stop-color="#97B6BE"/>
<stop offset="1" stop-color="#5D87B4"/>
</radialGradient>
<radialGradient id="paint2_radial_12_3115" cx="0" cy="0" r="1" gradientUnits="userSpaceOnUse" gradientTransform="translate(108.53 35.1178) rotate(126.034) scale(23.8821 34.8395)">
<stop stop-color="white"/>
<stop offset="1" stop-color="white" stop-opacity="0"/>
</radialGradient>
<radialGradient id="paint3_radial_12_3115" cx="0" cy="0" r="1" gradientUnits="userSpaceOnUse" gradientTransform="translate(155.274 75.1312) rotate(126.034) scale(18.7683 27.3793)">
<stop stop-color="white"/>
<stop offset="1" stop-color="white" stop-opacity="0"/>
</radialGradient>
<radialGradient id="paint4_radial_12_3115" cx="0" cy="0" r="1" gradientUnits="userSpaceOnUse" gradientTransform="translate(21.3695 101.564) rotate(-25.7092) scale(9.62033 28.0056)">
<stop stop-color="white"/>
<stop offset="1" stop-color="white" stop-opacity="0"/>
</radialGradient>
<radialGradient id="paint5_radial_12_3115" cx="0" cy="0" r="1" gradientUnits="userSpaceOnUse" gradientTransform="translate(34.1866 152.935) rotate(30.0008) scale(19.5357 19.5357)">
<stop stop-color="#D0F2FF"/>
<stop offset="0.198" stop-color="#D5F3FF"/>
<stop offset="1" stop-color="#85BCF1"/>
</radialGradient>
<radialGradient id="paint6_radial_12_3115" cx="0" cy="0" r="1" gradientUnits="userSpaceOnUse" gradientTransform="translate(35.2197 151.662) rotate(156.037) scale(4.36468 6.36705)">
<stop stop-color="white"/>
<stop offset="1" stop-color="white" stop-opacity="0"/>
</radialGradient>
<radialGradient id="paint7_radial_12_3115" cx="0" cy="0" r="1" gradientUnits="userSpaceOnUse" gradientTransform="translate(47.2772 176.726) rotate(30.0009) scale(19.5375 19.5376)">
<stop stop-color="#D0F2FF"/>
<stop offset="0.198" stop-color="#D5F3FF"/>
<stop offset="1" stop-color="#85BCF1"/>
</radialGradient>
<radialGradient id="paint8_radial_12_3115" cx="0" cy="0" r="1" gradientUnits="userSpaceOnUse" gradientTransform="translate(48.3102 175.452) rotate(156.037) scale(4.36496 6.36746)">
<stop stop-color="white"/>
<stop offset="1" stop-color="white" stop-opacity="0"/>
</radialGradient>
<radialGradient id="paint9_radial_12_3115" cx="0" cy="0" r="1" gradientUnits="userSpaceOnUse" gradientTransform="translate(138.911 152.936) rotate(30.0008) scale(19.5341 19.5341)">
<stop stop-color="#D0F2FF"/>
<stop offset="0.198" stop-color="#D5F3FF"/>
<stop offset="1" stop-color="#85BCF1"/>
</radialGradient>
<radialGradient id="paint10_radial_12_3115" cx="0" cy="0" r="1" gradientUnits="userSpaceOnUse" gradientTransform="translate(139.943 151.662) rotate(156.037) scale(4.36468 6.36705)">
<stop stop-color="white"/>
<stop offset="1" stop-color="white" stop-opacity="0"/>
</radialGradient>
<radialGradient id="paint11_radial_12_3115" cx="0" cy="0" r="1" gradientUnits="userSpaceOnUse" gradientTransform="translate(116.36 176.726) rotate(30.0009) scale(19.5356 19.5356)">
<stop stop-color="#D0F2FF"/>
<stop offset="0.198" stop-color="#D5F3FF"/>
<stop offset="1" stop-color="#85BCF1"/>
</radialGradient>
<radialGradient id="paint12_radial_12_3115" cx="0" cy="0" r="1" gradientUnits="userSpaceOnUse" gradientTransform="translate(117.392 175.452) rotate(156.037) scale(4.36524 6.36787)">
<stop stop-color="white"/>
<stop offset="1" stop-color="white" stop-opacity="0"/>
</radialGradient>
</defs>
</svg>
