<svg width="152" height="150" viewBox="0 0 152 150" fill="none" xmlns="http://www.w3.org/2000/svg">
<path d="M134.7 121.862L118.109 123.048L114.949 139.243L99.1488 134.701L90.6559 148.921L77.2254 139.046L64.3874 149.514L55.1046 135.688L39.5015 141.218L35.5513 125.023L18.9607 124.825L20.7383 108.234L5.13519 102.507L12.443 87.4961L0 76.6331L12.048 65.1777L3.95015 50.7596L18.9607 44.0443L16.3931 27.6511L32.9838 26.6636L36.1439 10.2704L51.9445 15.0106L60.4373 0.592524L73.8678 10.4679L86.7058 0L95.9886 13.8256L111.592 8.29534L115.542 24.491L132.132 24.6885L130.355 41.2792L145.958 47.0069L138.65 62.0175L151.093 72.8805L139.243 84.336L147.143 98.754L132.132 105.469L134.7 121.862Z" fill="url(#paint0_linear_12_2868)"/>
<path d="M75.6456 130.751C106.515 130.751 131.54 105.726 131.54 74.8557C131.54 43.9859 106.515 18.9609 75.6456 18.9609C44.7758 18.9609 19.751 43.9859 19.751 74.8557C19.751 105.726 44.7758 130.751 75.6456 130.751Z" fill="url(#paint1_radial_12_2868)"/>
<path d="M84.1384 68.93C69.9179 57.2771 64.3876 39.6988 71.6954 29.6259C79.0032 19.553 96.5814 20.5406 110.999 32.1935C125.22 43.8465 130.75 61.4247 123.442 71.4976C115.937 81.7681 98.3589 80.583 84.1384 68.93Z" fill="url(#paint2_radial_12_2868)"/>
<path opacity="0.4" d="M26.0708 87.1007C28.0459 80.978 37.5263 83.5456 47.5992 92.8285C57.4745 102.111 64.1898 114.752 62.2147 121.072C60.2396 127.195 50.7593 124.627 40.6864 115.344C30.811 105.864 24.0958 93.421 26.0708 87.1007Z" fill="url(#paint3_radial_12_2868)"/>
<defs>
<linearGradient id="paint0_linear_12_2868" x1="144.47" y1="-2.24172" x2="11.6294" y2="146.203" gradientUnits="userSpaceOnUse">
<stop stop-color="#FFBA24"/>
<stop offset="1" stop-color="#FF5500"/>
</linearGradient>
<radialGradient id="paint1_radial_12_2868" cx="0" cy="0" r="1" gradientUnits="userSpaceOnUse" gradientTransform="translate(88.3592 39.6685) rotate(180) scale(106.272 106.273)">
<stop stop-color="#FFF4C3"/>
<stop offset="0.1559" stop-color="#FFE036"/>
<stop offset="1" stop-color="#FA761C"/>
</radialGradient>
<radialGradient id="paint2_radial_12_2868" cx="0" cy="0" r="1" gradientUnits="userSpaceOnUse" gradientTransform="translate(97.4719 50.6028) rotate(126.034) scale(22.7571 33.1982)">
<stop stop-color="white"/>
<stop offset="1" stop-color="white" stop-opacity="0"/>
</radialGradient>
<radialGradient id="paint3_radial_12_2868" cx="0" cy="0" r="1" gradientUnits="userSpaceOnUse" gradientTransform="translate(44.1141 104.083) rotate(-136.79) scale(24.7463 10.5107)">
<stop stop-color="white"/>
<stop offset="1" stop-color="white" stop-opacity="0"/>
</radialGradient>
</defs>
</svg>
