<svg width="25" height="25" viewBox="0 0 25 25" fill="none" xmlns="http://www.w3.org/2000/svg">
<path d="M8.33325 5.20866C8.33325 4.10359 8.77224 3.04378 9.55364 2.26238C10.335 1.48098 11.3949 1.04199 12.4999 1.04199C13.605 1.04199 14.6648 1.48098 15.4462 2.26238C16.2276 3.04378 16.6666 4.10359 16.6666 5.20866V10.6826C17.9405 11.5697 18.8981 12.8402 19.4 14.3091C19.9019 15.7781 19.9218 17.369 19.457 18.8501C18.9921 20.3312 18.0667 21.6253 16.8154 22.544C15.5641 23.4628 14.0523 23.9582 12.4999 23.9582C10.9476 23.9582 9.43572 23.4628 8.18444 22.544C6.93315 21.6253 6.00773 20.3312 5.54287 18.8501C5.078 17.369 5.09796 15.7781 5.59984 14.3091C6.10171 12.8402 7.05931 11.5697 8.33325 10.6826V5.20866ZM9.52492 12.391C8.61468 13.0244 7.93038 13.9318 7.57164 14.9811C7.2129 16.0304 7.19844 17.1669 7.53038 18.225C7.86231 19.2831 8.52331 20.2076 9.41714 20.864C10.311 21.5204 11.391 21.8743 12.4999 21.8743C13.6089 21.8743 14.6889 21.5204 15.5827 20.864C16.4765 20.2076 17.1375 19.2831 17.4695 18.225C17.8014 17.1669 17.7869 16.0304 17.4282 14.9811C17.0695 13.9318 16.3852 13.0244 15.4749 12.391L14.5833 11.7691V5.20866C14.5833 4.65612 14.3638 4.12622 13.9731 3.73552C13.5824 3.34482 13.0525 3.12533 12.4999 3.12533C11.9474 3.12533 11.4175 3.34482 11.0268 3.73552C10.6361 4.12622 10.4166 4.65612 10.4166 5.20866V11.7691L9.52492 12.391ZM11.4583 12.6316V5.20866H13.5416V12.6316C14.5213 12.8875 15.3743 13.4913 15.9414 14.3302C16.5085 15.1691 16.7509 16.1856 16.6233 17.1901C16.4957 18.1946 16.0069 19.1184 15.2481 19.7888C14.4893 20.4593 13.5125 20.8307 12.4999 20.8337C11.4851 20.8347 10.5047 20.4652 9.74291 19.7947C8.9811 19.1242 8.4902 18.1987 8.36234 17.1919C8.23447 16.1852 8.47845 15.1663 9.04847 14.3267C9.61849 13.487 10.4754 12.8843 11.4583 12.6316ZM12.4999 18.7503C13.0525 18.7503 13.5824 18.5308 13.9731 18.1401C14.3638 17.7494 14.5833 17.2195 14.5833 16.667C14.5833 16.1145 14.3638 15.5846 13.9731 15.1939C13.5824 14.8032 13.0525 14.5837 12.4999 14.5837C11.9474 14.5837 11.4175 14.8032 11.0268 15.1939C10.6361 15.5846 10.4166 16.1145 10.4166 16.667C10.4166 17.2195 10.6361 17.7494 11.0268 18.1401C11.4175 18.5308 11.9474 18.7503 12.4999 18.7503Z" fill="white"/>
</svg>
