<svg width="25" height="25" viewBox="0 0 25 25" fill="none" xmlns="http://www.w3.org/2000/svg">
<path d="M12.4999 1.30176C12.9314 1.30176 13.2812 1.65154 13.2812 2.08301V3.12467C13.2812 3.55615 12.9314 3.90592 12.4999 3.90592C12.0684 3.90592 11.7187 3.55615 11.7187 3.12467V2.08301C11.7187 1.65154 12.0684 1.30176 12.4999 1.30176Z" fill="white"/>
<path d="M12.4999 6.51009C9.19196 6.51009 6.51034 9.19172 6.51034 12.4997C6.51034 15.8076 9.19196 18.4893 12.4999 18.4893C15.8079 18.4893 18.4895 15.8076 18.4895 12.4997C18.4895 9.19172 15.8079 6.51009 12.4999 6.51009Z" fill="white"/>
<path d="M5.68667 4.58158C5.38157 4.27648 4.88691 4.27648 4.58181 4.58158C4.27671 4.88667 4.27671 5.38133 4.58181 5.68643L5.31838 6.423C5.62348 6.7281 6.11814 6.7281 6.42323 6.423C6.72833 6.1179 6.72833 5.62324 6.42323 5.31815L5.68667 4.58158Z" fill="white"/>
<path d="M23.6978 12.4997C23.6978 12.9311 23.3481 13.2809 22.9166 13.2809H21.8749C21.4434 13.2809 21.0937 12.9311 21.0937 12.4997C21.0937 12.0682 21.4434 11.7184 21.8749 11.7184H22.9166C23.3481 11.7184 23.6978 12.0682 23.6978 12.4997Z" fill="white"/>
<path d="M20.418 5.68642C20.7231 5.38132 20.7231 4.88666 20.418 4.58157C20.1129 4.27647 19.6183 4.27647 19.3132 4.58157L18.5766 5.31814C18.2715 5.62323 18.2715 6.11789 18.5766 6.42299C18.8817 6.72809 19.3764 6.72809 19.6814 6.42299L20.418 5.68642Z" fill="white"/>
<path d="M12.4999 21.0934C12.9314 21.0934 13.2812 21.4432 13.2812 21.8747V22.9163C13.2812 23.3478 12.9314 23.6976 12.4999 23.6976C12.0684 23.6976 11.7187 23.3478 11.7187 22.9163V21.8747C11.7187 21.4432 12.0684 21.0934 12.4999 21.0934Z" fill="white"/>
<path d="M19.6815 18.5764C19.3764 18.2713 18.8818 18.2713 18.5767 18.5764C18.2716 18.8815 18.2716 19.3761 18.5767 19.6812L19.3132 20.4178C19.6183 20.7229 20.113 20.7229 20.4181 20.4178C20.7232 20.1127 20.7232 19.618 20.4181 19.3129L19.6815 18.5764Z" fill="white"/>
<path d="M3.90617 12.4997C3.90617 12.9311 3.55639 13.2809 3.12492 13.2809H2.08325C1.65178 13.2809 1.302 12.9311 1.302 12.4997C1.302 12.0682 1.65178 11.7184 2.08325 11.7184H3.12492C3.55639 11.7184 3.90617 12.0682 3.90617 12.4997Z" fill="white"/>
<path d="M6.42317 19.6812C6.72826 19.3761 6.72826 18.8815 6.42317 18.5764C6.11807 18.2713 5.62341 18.2713 5.31831 18.5764L4.58174 19.3129C4.27664 19.618 4.27664 20.1127 4.58174 20.4178C4.88684 20.7229 5.3815 20.7229 5.6866 20.4178L6.42317 19.6812Z" fill="white"/>
</svg>
