<svg width="100" height="101" viewBox="0 0 100 101" fill="none" xmlns="http://www.w3.org/2000/svg">
<path d="M40.8834 80.3941C57.3263 85.4078 74.7137 76.1641 79.7193 59.7477C84.7249 43.3314 75.4531 25.9589 59.0103 20.9452C42.5675 15.9316 25.1801 25.1753 20.1745 41.5916C15.1689 58.008 24.4406 75.3804 40.8834 80.3941Z" fill="url(#paint0_radial_13_4375)"/>
<g opacity="0.49">
<path d="M43.2837 72.5215C55.372 76.2074 68.1547 69.4117 71.8346 57.3429C75.5146 45.2741 68.6983 32.5024 56.61 28.8165C44.5218 25.1306 31.7391 31.9263 28.0591 43.9951C24.3792 56.0639 31.1954 68.8356 43.2837 72.5215Z" fill="white"/>
</g>
<path d="M43.8598 70.6327C54.903 74 66.5806 67.7918 69.9424 56.7664C73.3042 45.741 67.0772 34.0735 56.034 30.7063C44.9908 27.3391 33.3133 33.5472 29.9515 44.5726C26.5897 55.598 32.8166 67.2655 43.8598 70.6327Z" fill="white"/>
<path d="M38.8072 45.8273C41.3154 46.5921 43.9678 45.182 44.7313 42.6778C45.4949 40.1736 44.0806 37.5236 41.5723 36.7588C39.0641 35.994 36.4118 37.4041 35.6482 39.9083C34.8846 42.4124 36.299 45.0625 38.8072 45.8273Z" fill="#EFEFF0"/>
<path d="M36.2788 40.1003C37.0085 37.7072 39.433 36.3127 41.8875 36.8547C41.7614 36.8162 41.6352 36.7777 41.5091 36.7393C38.986 35.97 36.3531 37.3697 35.585 39.8887C34.8169 42.4077 36.2209 45.0384 38.744 45.8077C38.8701 45.8462 38.9963 45.8847 39.1224 45.9231C36.8462 45.0226 35.5491 42.4934 36.2788 40.1003Z" fill="#D8D9DA"/>
<path d="M47.2807 57.1528C50.1722 58.0345 53.2297 56.409 54.1099 53.5222C54.9902 50.6354 53.3597 47.5805 50.4683 46.6989C47.5769 45.8172 44.5194 47.4427 43.6391 50.3295C42.7589 53.2163 44.3893 56.2712 47.2807 57.1528Z" fill="#EFEFF0"/>
<path d="M44.4591 50.5795C45.304 47.8086 48.1207 46.2584 50.8468 46.8143C50.7206 46.7758 50.5945 46.7374 50.4683 46.6989C47.5668 45.8142 44.5224 47.4326 43.6391 50.3295C42.7558 53.2264 44.3792 56.2681 47.2807 57.1528C47.4069 57.1913 47.5331 57.2297 47.6592 57.2682C45.0676 56.2715 43.6142 53.3505 44.4591 50.5795Z" fill="#D8D9DA"/>
<path d="M59.2911 45.1212C61.2768 45.7267 63.3765 44.6104 63.981 42.6279C64.5855 40.6454 63.4658 38.5475 61.4801 37.942C59.4945 37.3365 57.3947 38.4528 56.7902 40.4353C56.1858 42.4178 57.3054 44.5157 59.2911 45.1212Z" fill="#EFEFF0"/>
<path d="M57.3581 40.6087C57.9342 38.7194 59.865 37.5874 61.7957 38.0385C61.7326 38.0192 61.6065 37.9808 61.5434 37.9615C59.5249 37.3461 57.4487 38.5026 56.8535 40.4548C56.2582 42.4071 57.399 44.5445 59.3544 45.1407C59.4174 45.16 59.5436 45.1984 59.6067 45.2177C57.7527 44.5147 56.782 42.498 57.3581 40.6087Z" fill="#D8D9DA"/>
<path d="M34.6403 57.9096C35.8596 58.2813 37.1489 57.5959 37.5201 56.3786C37.8912 55.1613 37.2037 53.8731 35.9844 53.5013C34.7652 53.1295 33.4758 53.815 33.1047 55.0323C32.7335 56.2496 33.421 57.5378 34.6403 57.9096Z" fill="#EFEFF0"/>
<path d="M33.42 55.1284C33.7849 53.9319 34.956 53.2565 36.1737 53.559C36.1106 53.5398 36.0475 53.5205 35.9844 53.5013C34.7229 53.1166 33.4695 53.8357 33.1047 55.0323C32.7206 56.2918 33.4418 57.5441 34.6403 57.9096C34.7034 57.9288 34.7664 57.948 34.8295 57.9673C33.7133 57.5581 33.0552 56.325 33.42 55.1284Z" fill="#D8D9DA"/>
<path d="M62.7679 56.7813C63.813 57.1 64.9181 56.5124 65.2363 55.469C65.5544 54.4256 64.9651 53.3214 63.92 53.0028C62.8749 52.6841 61.7698 53.2716 61.4516 54.315C61.1335 55.3585 61.7228 56.4626 62.7679 56.7813Z" fill="#EFEFF0"/>
<path d="M61.7673 54.4115C62.0745 53.4039 63.0811 52.816 64.1095 53.0608C64.0464 53.0415 63.9834 53.0223 63.9834 53.0223C62.9111 52.6953 61.8222 53.327 61.515 54.3346C61.1886 55.4052 61.822 56.4931 62.8312 56.8008C62.8943 56.8201 62.9574 56.8393 62.9574 56.8393C61.9866 56.4056 61.4793 55.3561 61.7673 54.4115Z" fill="#D8D9DA"/>
<path d="M49.8574 36.9454C50.9025 37.264 52.0076 36.6765 52.3257 35.6331C52.6439 34.5897 52.0546 33.4855 51.0095 33.1668C49.9644 32.8482 48.8593 33.4357 48.5411 34.4791C48.223 35.5225 48.8123 36.6267 49.8574 36.9454Z" fill="#EFEFF0"/>
<path d="M48.7934 34.556C49.1007 33.5484 50.1072 32.9605 51.1356 33.2053C51.0726 33.1861 51.0095 33.1668 51.0095 33.1668C49.9372 32.8399 48.8484 33.4715 48.5411 34.4791C48.2147 35.5497 48.8481 36.6376 49.8574 36.9454C49.9204 36.9646 49.9835 36.9838 49.9835 36.9838C49.0566 36.6324 48.4862 35.5636 48.7934 34.556Z" fill="#D8D9DA"/>
<path d="M53.2999 67.936C54.9372 68.4352 56.6686 67.5147 57.167 65.8801C57.6654 64.2454 56.7422 62.5155 55.1049 62.0163C53.4676 61.517 51.7362 62.4375 51.2378 64.0722C50.7393 65.7068 51.6626 67.4367 53.2999 67.936Z" fill="#EFEFF0"/>
<path d="M51.6793 64.2068C52.1593 62.6324 53.7419 61.7383 55.3572 62.0932C55.2941 62.074 55.231 62.0547 55.1049 62.0163C53.4649 61.5162 51.737 62.4348 51.2378 64.0722C50.7385 65.7095 51.6599 67.4359 53.2999 67.936C53.3629 67.9552 53.426 67.9744 53.5522 68.0129C52.0575 67.4883 51.1992 65.7812 51.6793 64.2068Z" fill="#D8D9DA"/>
<path opacity="0.91" d="M59.7748 69.0835C55.4963 71.3581 50.7572 71.978 46.2951 71.2369C42.1595 69.4252 38.5724 66.2666 36.3101 61.9288C30.8697 51.7349 34.7101 39.1398 44.9127 33.7157C49.1912 31.4411 53.9304 30.8213 58.3925 31.5623C62.5281 33.374 66.1151 36.5327 68.3774 40.8705C73.8179 51.0644 69.9583 63.7224 59.7748 69.0835Z" fill="#00041E"/>
<defs>
<radialGradient id="paint0_radial_13_4375" cx="0" cy="0" r="1" gradientUnits="userSpaceOnUse" gradientTransform="translate(49.9287 50.6766) rotate(-73.0427) scale(31.0954 31.1456)">
<stop offset="0.0189189" stop-color="white"/>
<stop offset="0.9081" stop-color="white" stop-opacity="0"/>
</radialGradient>
</defs>
</svg>
