<svg width="101" height="101" viewBox="0 0 101 101" fill="none" xmlns="http://www.w3.org/2000/svg">
<path d="M41.6829 79.8873C58.1257 84.9009 75.5131 75.6572 80.5187 59.2409C85.5243 42.8245 76.2526 25.4521 59.8098 20.4384C43.3669 15.4247 25.9795 24.6684 20.9739 41.0848C15.9683 57.5011 25.2401 74.8736 41.6829 79.8873Z" fill="url(#paint0_radial_13_4406)"/>
<g opacity="0.49">
<path d="M44.0832 72.0146C56.1715 75.7005 68.9541 68.9049 72.6341 56.8361C76.3141 44.7673 69.4978 31.9956 57.4095 28.3097C45.3212 24.6238 32.5385 31.4194 28.8586 43.4882C25.1786 55.557 31.9949 68.3287 44.0832 72.0146Z" fill="white"/>
</g>
<path d="M44.6593 70.1259C55.7025 73.4931 67.38 67.285 70.7418 56.2596C74.1036 45.2342 67.8766 33.5667 56.8335 30.1995C45.7903 26.8322 34.1127 33.0404 30.7509 44.0658C27.3891 55.0912 33.6161 66.7587 44.6593 70.1259Z" fill="white"/>
<path d="M39.6065 45.3204C42.1147 46.0852 44.7671 44.6752 45.5306 42.171C46.2942 39.6668 44.8799 37.0168 42.3716 36.252C39.8634 35.4872 37.2111 36.8972 36.4475 39.4014C35.684 41.9056 37.0983 44.5556 39.6065 45.3204Z" fill="#EFEFF0"/>
<path d="M37.1414 39.613C37.8711 37.2199 40.2956 35.8254 42.7501 36.3674C42.6239 36.3289 42.4978 36.2904 42.3716 36.252C39.8485 35.4826 37.2156 36.8824 36.4475 39.4014C35.6794 41.9204 37.0834 44.5511 39.6065 45.3204C39.7327 45.3589 39.8588 45.3974 39.985 45.4358C37.6457 44.5161 36.4117 42.0061 37.1414 39.613Z" fill="#D8D9DA"/>
<path d="M48.1433 56.6645C51.0347 57.5462 54.0923 55.9207 54.9725 53.0339C55.8527 50.1472 54.2223 47.0923 51.3309 46.2106C48.4394 45.329 45.3819 46.9544 44.5017 49.8412C43.6215 52.728 45.2519 55.7829 48.1433 56.6645Z" fill="#EFEFF0"/>
<path d="M45.3217 50.0913C46.1666 47.3203 48.9833 45.7701 51.7093 46.326C51.5832 46.2875 51.457 46.2491 51.3309 46.2106C48.4293 45.3259 45.385 46.9443 44.5017 49.8412C43.6184 52.7381 45.2418 55.7798 48.1433 56.6645C48.2695 56.703 48.3956 56.7415 48.5218 56.7799C45.8671 55.764 44.4768 52.8622 45.3217 50.0913Z" fill="#D8D9DA"/>
<path d="M60.0906 44.6144C62.0762 45.2198 64.176 44.1035 64.7805 42.1211C65.385 40.1386 64.2653 38.0406 62.2796 37.4352C60.2939 36.8297 58.1942 37.946 57.5897 39.9285C56.9852 41.911 58.1049 44.0089 60.0906 44.6144Z" fill="#EFEFF0"/>
<path d="M58.1576 40.1019C58.7337 38.2126 60.6645 37.0806 62.5953 37.5316C62.5322 37.5124 62.406 37.4739 62.343 37.4547C60.3245 36.8392 58.2483 37.9958 57.653 39.948C57.0578 41.9002 58.1985 44.0377 60.1539 44.6339C60.217 44.6531 60.3431 44.6916 60.4062 44.7108C58.5523 44.0079 57.5816 41.9911 58.1576 40.1019Z" fill="#D8D9DA"/>
<path d="M35.5028 57.4223C36.7221 57.794 38.0114 57.1086 38.3826 55.8913C38.7538 54.674 38.0663 53.3858 36.847 53.014C35.6277 52.6422 34.3384 53.3276 33.9672 54.545C33.596 55.7623 34.2836 57.0505 35.5028 57.4223Z" fill="#EFEFF0"/>
<path d="M34.2826 54.6411C34.6474 53.4446 35.8185 52.7692 37.0362 53.0717C36.9731 53.0524 36.9101 53.0332 36.847 53.014C35.5854 52.6293 34.332 53.3484 33.9672 54.545C33.5832 55.8045 34.3044 57.0568 35.5028 57.4223C35.5659 57.4415 35.629 57.4607 35.6921 57.48C34.5128 57.0516 33.9178 55.8377 34.2826 54.6411Z" fill="#D8D9DA"/>
<path d="M63.6304 56.294C64.6755 56.6127 65.7807 56.0251 66.0988 54.9817C66.417 53.9383 65.8277 52.8341 64.7826 52.5155C63.7375 52.1968 62.6323 52.7843 62.3142 53.8277C61.996 54.8712 62.5853 55.9753 63.6304 56.294Z" fill="#EFEFF0"/>
<path d="M62.5665 53.9047C62.8737 52.8971 63.8803 52.3092 64.9087 52.5539C64.8457 52.5347 64.7826 52.5155 64.7826 52.5155C63.7103 52.1885 62.6214 52.8201 62.3142 53.8277C61.9878 54.8983 62.6212 55.9863 63.6304 56.294C63.6935 56.3132 63.7566 56.3325 63.7566 56.3325C62.7858 55.8988 62.2785 54.8493 62.5665 53.9047Z" fill="#D8D9DA"/>
<path d="M50.6568 36.4385C51.7019 36.7572 52.807 36.1697 53.1252 35.1263C53.4433 34.0829 52.854 32.9787 51.8089 32.66C50.7638 32.3413 49.6587 32.9289 49.3406 33.9723C49.0224 35.0157 49.6117 36.1199 50.6568 36.4385Z" fill="#EFEFF0"/>
<path d="M49.6562 34.0687C49.9635 33.0611 50.97 32.4732 51.9985 32.718C51.9354 32.6988 51.8723 32.6795 51.8723 32.6795C50.8 32.3526 49.7111 32.9842 49.4039 33.9918C49.0775 35.0624 49.7109 36.1503 50.7202 36.4581C50.7832 36.4773 50.8463 36.4965 50.8463 36.4965C49.8563 36.1258 49.349 35.0763 49.6562 34.0687Z" fill="#D8D9DA"/>
<path d="M54.1624 67.4487C55.7997 67.9479 57.5311 67.0274 58.0296 65.3928C58.528 63.7581 57.6048 62.0282 55.9674 61.529C54.3301 61.0297 52.5987 61.9502 52.1003 63.5848C51.6019 65.2195 52.5251 66.9494 54.1624 67.4487Z" fill="#EFEFF0"/>
<path d="M52.5418 63.7195C53.0219 62.1451 54.6044 61.251 56.2197 61.6059C56.1567 61.5867 56.0936 61.5674 55.9674 61.529C54.3274 61.0289 52.5996 61.9475 52.1003 63.5848C51.601 65.2222 52.5224 66.9486 54.1624 67.4487C54.2255 67.4679 54.2886 67.4871 54.4147 67.5256C52.857 66.9818 52.0618 65.2939 52.5418 63.7195Z" fill="#D8D9DA"/>
<path opacity="0.91" d="M60.5743 68.5772C54.1565 71.9891 46.7242 71.719 40.8006 68.5362C44.7526 68.9152 48.8417 68.166 52.5443 66.1976C62.7469 60.7736 66.5874 48.1785 61.1469 37.9846C59.1286 34.203 56.134 31.3626 52.7059 29.4914C59.48 30.1115 65.7354 34.0149 69.1577 40.4272C74.6174 50.5581 70.7577 63.2162 60.5743 68.5772Z" fill="#00041E"/>
<defs>
<radialGradient id="paint0_radial_13_4406" cx="0" cy="0" r="1" gradientUnits="userSpaceOnUse" gradientTransform="translate(50.7451 50.1749) rotate(-73.0427) scale(31.0953 31.1455)">
<stop offset="0.0189189" stop-color="white"/>
<stop offset="0.9081" stop-color="white" stop-opacity="0"/>
</radialGradient>
</defs>
</svg>
