<svg width="101" height="101" viewBox="0 0 101 101" fill="none" xmlns="http://www.w3.org/2000/svg">
<path d="M41.0896 80.0513C57.5325 85.065 74.9199 75.8213 79.9255 59.405C84.931 42.9886 75.6593 25.6161 59.2165 20.6025C42.7736 15.5888 25.3863 24.8325 20.3807 41.2488C15.3751 57.6652 24.6468 75.0376 41.0896 80.0513Z" fill="url(#paint0_radial_13_4468)"/>
<g opacity="0.49">
<path d="M43.4899 72.1787C55.5782 75.8646 68.3609 69.0689 72.0408 57.0001C75.7208 44.9313 68.9045 32.1596 56.8162 28.4737C44.7279 24.7878 31.9453 31.5835 28.2653 43.6523C24.5853 55.7211 31.4016 68.4928 43.4899 72.1787Z" fill="white"/>
</g>
<path d="M44.066 70.29C55.1092 73.6572 66.7867 67.4491 70.1485 56.4237C73.5104 45.3983 67.2834 33.7307 56.2402 30.3635C45.197 26.9963 33.5195 33.2044 30.1577 44.2298C26.7958 55.2552 33.0228 66.9227 44.066 70.29Z" fill="white"/>
<path d="M39.0135 45.4845C41.5217 46.2493 44.1741 44.8392 44.9376 42.3351C45.7012 39.8309 44.2868 37.1808 41.7786 36.416C39.2704 35.6512 36.6181 37.0613 35.8545 39.5655C35.0909 42.0697 36.5053 44.7197 39.0135 45.4845Z" fill="#EFEFF0"/>
<path d="M36.485 39.7575C37.2147 37.3644 39.6392 35.97 42.0937 36.5119C41.9676 36.4734 41.8414 36.435 41.7153 36.3965C39.1922 35.6272 36.5592 37.0269 35.7912 39.5459C35.0231 42.065 36.4271 44.6956 38.9501 45.465C39.0763 45.5034 39.2025 45.5419 39.3286 45.5804C37.0524 44.6798 35.7553 42.1506 36.485 39.7575Z" fill="#D8D9DA"/>
<path d="M47.4869 56.81C50.3784 57.6917 53.4359 56.0662 54.3161 53.1794C55.1963 50.2927 53.5659 47.2378 50.6745 46.3561C47.783 45.4745 44.7255 47.0999 43.8453 49.9867C42.9651 52.8735 44.5955 55.9284 47.4869 56.81Z" fill="#EFEFF0"/>
<path d="M44.6653 50.2368C45.5102 47.4658 48.3269 45.9156 51.0529 46.4715C50.9268 46.4331 50.8006 46.3946 50.6745 46.3561C47.7729 45.4714 44.7286 47.0899 43.8453 49.9867C42.962 52.8836 44.5854 55.9253 47.4869 56.81C47.6131 56.8485 47.7392 56.887 47.8654 56.9254C45.293 55.8657 43.8204 53.0077 44.6653 50.2368Z" fill="#D8D9DA"/>
<path d="M59.4973 44.7784C61.483 45.3839 63.5827 44.2676 64.1872 42.2851C64.7917 40.3026 63.672 38.2047 61.6863 37.5992C59.7006 36.9938 57.6009 38.11 56.9964 40.0925C56.3919 42.075 57.5116 44.173 59.4973 44.7784Z" fill="#EFEFF0"/>
<path d="M57.5643 40.2659C58.1403 38.3767 60.0712 37.2446 62.0019 37.6957C61.9388 37.6765 61.8127 37.638 61.7496 37.6188C59.7311 37.0033 57.6549 38.1598 57.0597 40.1121C56.4452 42.1273 57.6051 44.2017 59.5605 44.798C59.6236 44.8172 59.7498 44.8557 59.8128 44.8749C57.9781 44.109 56.9882 42.1552 57.5643 40.2659Z" fill="#D8D9DA"/>
<path d="M34.8465 57.5668C36.0657 57.9386 37.3551 57.2531 37.7262 56.0358C38.0974 54.8185 37.4099 53.5303 36.1906 53.1585C34.9713 52.7867 33.682 53.4722 33.3108 54.6895C32.9397 55.9068 33.6272 57.195 34.8465 57.5668Z" fill="#EFEFF0"/>
<path d="M33.6262 54.7857C33.9911 53.5891 35.1622 52.9138 36.3798 53.2162C36.3168 53.197 36.2537 53.1777 36.1906 53.1585C34.9291 52.7738 33.6757 53.493 33.3108 54.6895C32.9268 55.949 33.648 57.2014 34.8465 57.5668C34.9095 57.586 34.9726 57.6053 35.0357 57.6245C33.9195 57.2153 33.2614 55.9822 33.6262 54.7857Z" fill="#D8D9DA"/>
<path d="M62.9932 56.376C64.0383 56.6947 65.1435 56.1072 65.4616 55.0638C65.7798 54.0204 65.1905 52.9162 64.1454 52.5975C63.1003 52.2788 61.9951 52.8664 61.677 53.9098C61.3588 54.9532 61.9481 56.0574 62.9932 56.376Z" fill="#EFEFF0"/>
<path d="M61.9926 54.0062C62.2999 52.9986 63.3064 52.4107 64.3349 52.6555C64.2718 52.6363 64.2087 52.617 64.2087 52.617C63.1364 52.2901 62.0476 52.9217 61.7403 53.9293C61.4139 54.9999 62.0474 56.0878 63.0566 56.3956C63.1197 56.4148 63.1827 56.434 63.1827 56.434C62.1927 56.0633 61.6854 55.0138 61.9926 54.0062Z" fill="#D8D9DA"/>
<path d="M50.0635 36.6026C51.1086 36.9213 52.2138 36.3337 52.5319 35.2903C52.8501 34.2469 52.2608 33.1427 51.2157 32.8241C50.1706 32.5054 49.0655 33.0929 48.7473 34.1363C48.4291 35.1797 49.0185 36.2839 50.0635 36.6026Z" fill="#EFEFF0"/>
<path d="M48.9996 34.2133C49.3068 33.2057 50.3134 32.6178 51.3418 32.8625C51.2787 32.8433 51.2157 32.8241 51.2157 32.8241C50.1434 32.4971 49.0545 33.1287 48.7473 34.1363C48.4209 35.2069 49.0543 36.2949 50.0635 36.6026C50.1266 36.6218 50.1897 36.6411 50.1897 36.6411C49.2627 36.2896 48.6924 35.2209 48.9996 34.2133Z" fill="#D8D9DA"/>
<path d="M53.506 67.5932C55.1434 68.0924 56.8747 67.172 57.3732 65.5373C57.8716 63.9026 56.9484 62.1727 55.311 61.6735C53.6737 61.1742 51.9424 62.0947 51.4439 63.7294C50.9455 65.3641 51.8687 67.0939 53.506 67.5932Z" fill="#EFEFF0"/>
<path d="M51.8855 63.864C52.3655 62.2896 53.948 61.3955 55.5634 61.7504C55.5003 61.7312 55.4372 61.712 55.311 61.6735C53.671 61.1734 51.9432 62.092 51.4439 63.7294C50.9447 65.3667 51.866 67.0931 53.506 67.5932C53.5691 67.6124 53.6322 67.6316 53.7584 67.6701C52.2829 67.0826 51.4054 65.4384 51.8855 63.864Z" fill="#D8D9DA"/>
<path opacity="0.91" d="M51.2764 66.0874C47.6561 68.0121 43.6931 68.7998 39.8672 68.4592C36.5215 66.5442 33.653 63.7423 31.7225 60.1251C26.282 49.9313 30.1224 37.3362 40.325 31.9121C43.9453 29.9874 47.9084 29.1997 51.7342 29.5403C55.08 31.4553 57.9485 34.2572 59.879 37.8744C65.3386 48.0053 61.479 60.6634 51.2764 66.0874Z" fill="#00041E"/>
<defs>
<radialGradient id="paint0_radial_13_4468" cx="0" cy="0" r="1" gradientUnits="userSpaceOnUse" gradientTransform="translate(50.1416 50.3098) rotate(-73.0427) scale(31.0953 31.1455)">
<stop offset="0.0189189" stop-color="white"/>
<stop offset="0.9081" stop-color="white" stop-opacity="0"/>
</radialGradient>
</defs>
</svg>
