<svg width="101" height="101" viewBox="0 0 101 101" fill="none" xmlns="http://www.w3.org/2000/svg">
<path d="M41.7464 80.4068C58.1892 85.4205 75.5766 76.1768 80.5822 59.7604C85.5878 43.3441 76.3161 25.9716 59.8732 20.9579C43.4304 15.9443 26.043 25.1879 21.0374 41.6043C16.0318 58.0206 25.3035 75.3931 41.7464 80.4068Z" fill="url(#paint0_radial_13_4437)"/>
<g opacity="0.49">
<path d="M44.1467 72.5342C56.2349 76.2201 69.0176 69.4244 72.6976 57.3556C76.3775 45.2868 69.5612 32.5151 57.473 28.8292C45.3847 25.1433 32.602 31.939 28.9221 44.0078C25.2421 56.0765 32.0584 68.8483 44.1467 72.5342Z" fill="white"/>
</g>
<path d="M44.7228 70.6454C55.7659 74.0127 67.4435 67.8045 70.8053 56.7791C74.1671 45.7537 67.9401 34.0862 56.8969 30.719C45.8538 27.3518 34.1762 33.5599 30.8144 44.5853C27.4526 55.6107 33.6796 67.2782 44.7228 70.6454Z" fill="white"/>
<path d="M39.6702 45.84C42.1785 46.6048 44.8308 45.1947 45.5943 42.6905C46.3579 40.1863 44.9436 37.5363 42.4354 36.7715C39.9271 36.0067 37.2748 37.4168 36.5112 39.921C35.7477 42.4251 37.162 45.0752 39.6702 45.84Z" fill="#EFEFF0"/>
<path d="M37.1417 40.113C37.8714 37.7199 40.2959 36.3254 42.7505 36.8674C42.6243 36.8289 42.4982 36.7904 42.372 36.752C39.8489 35.9826 37.216 37.3824 36.4479 39.9014C35.6798 42.4204 37.0838 45.0511 39.6069 45.8204C39.733 45.8589 39.8592 45.8974 39.9853 45.9358C37.7091 45.0353 36.4121 42.5061 37.1417 40.113Z" fill="#D8D9DA"/>
<path d="M48.1437 57.1655C51.0351 58.0472 54.0926 56.4217 54.9728 53.5349C55.8531 50.6481 54.2227 47.5932 51.3312 46.7116C48.4398 45.8299 45.3823 47.4554 44.502 50.3422C43.6218 53.229 45.2522 56.2839 48.1437 57.1655Z" fill="#EFEFF0"/>
<path d="M45.322 50.5922C46.1669 47.8213 48.9836 46.2711 51.7097 46.827C51.5835 46.7885 51.4574 46.7501 51.3312 46.7116C48.4297 45.8269 45.3853 47.4453 44.502 50.3422C43.6187 53.2391 45.2421 56.2808 48.1437 57.1655C48.2698 57.204 48.396 57.2425 48.5221 57.2809C45.9305 56.2842 44.4771 53.3632 45.322 50.5922Z" fill="#D8D9DA"/>
<path d="M60.154 45.1339C62.1397 45.7394 64.2395 44.6231 64.8439 42.6406C65.4484 40.6581 64.3288 38.5602 62.3431 37.9547C60.3574 37.3492 58.2576 38.4655 57.6532 40.448C57.0487 42.4305 58.1683 44.5284 60.154 45.1339Z" fill="#EFEFF0"/>
<path d="M58.2211 40.6214C58.7972 38.7321 60.728 37.6001 62.6587 38.0512C62.5957 38.0319 62.4695 37.9935 62.4064 37.9742C60.388 37.3588 58.3118 38.5153 57.7165 40.4675C57.102 42.4828 58.262 44.5572 60.2174 45.1534C60.2805 45.1727 60.4066 45.2111 60.4697 45.2304C58.635 44.4645 57.6451 42.5107 58.2211 40.6214Z" fill="#D8D9DA"/>
<path d="M35.5032 57.9223C36.7225 58.294 38.0118 57.6086 38.383 56.3913C38.7541 55.174 38.0666 53.8858 36.8473 53.514C35.6281 53.1422 34.3387 53.8276 33.9676 55.045C33.5964 56.2623 34.2839 57.5505 35.5032 57.9223Z" fill="#EFEFF0"/>
<path d="M34.283 55.1411C34.6478 53.9446 35.8189 53.2692 37.0366 53.5717C36.9735 53.5524 36.9104 53.5332 36.8473 53.514C35.5858 53.1293 34.3324 53.8484 33.9676 55.045C33.6027 56.2415 34.3047 57.5568 35.5032 57.9223C35.5663 57.9415 35.6293 57.9607 35.6924 57.98C34.5762 57.5708 33.9181 56.3377 34.283 55.1411Z" fill="#D8D9DA"/>
<path d="M63.65 56.7315C64.6951 57.0502 65.8002 56.4626 66.1184 55.4192C66.4365 54.3758 65.8472 53.2716 64.8021 52.953C63.757 52.6343 62.6519 53.2218 62.3337 54.2652C62.0156 55.3087 62.6049 56.4128 63.65 56.7315Z" fill="#EFEFF0"/>
<path d="M62.6494 54.3617C62.9566 53.3541 63.9632 52.7662 64.9916 53.011C64.9285 52.9917 64.8655 52.9725 64.8655 52.9725C63.7931 52.6455 62.7043 53.2772 62.3971 54.2848C62.0706 55.3554 62.7041 56.4433 63.7133 56.751C63.7764 56.7703 63.8395 56.7895 63.8395 56.7895C62.8495 56.4188 62.3422 55.3693 62.6494 54.3617Z" fill="#D8D9DA"/>
<path d="M50.7203 36.9581C51.7654 37.2767 52.8705 36.6892 53.1887 35.6458C53.5068 34.6024 52.9175 33.4982 51.8724 33.1795C50.8273 32.8609 49.7222 33.4484 49.404 34.4918C49.0859 35.5352 49.6752 36.6394 50.7203 36.9581Z" fill="#EFEFF0"/>
<path d="M49.6563 34.5687C49.9636 33.5611 50.9701 32.9732 51.9986 33.218C51.9355 33.1988 51.8724 33.1795 51.8724 33.1795C50.8001 32.8526 49.7113 33.4842 49.404 34.4918C49.0776 35.5624 49.7111 36.6503 50.7203 36.9581C50.7834 36.9773 50.8464 36.9965 50.8464 36.9965C49.9195 36.6451 49.3491 35.5763 49.6563 34.5687Z" fill="#D8D9DA"/>
<path d="M54.1628 67.9486C55.8001 68.4479 57.5315 67.5274 58.0299 65.8928C58.5284 64.2581 57.6051 62.5282 55.9678 62.029C54.3305 61.5297 52.5991 62.4502 52.1007 64.0848C51.6022 65.7195 52.5255 67.4494 54.1628 67.9486Z" fill="#EFEFF0"/>
<path d="M52.5422 64.2195C53.0223 62.6451 54.6048 61.751 56.2201 62.1059C56.157 62.0867 56.094 62.0674 55.9678 62.029C54.3278 61.5289 52.5999 62.4475 52.1007 64.0848C51.6014 65.7222 52.5228 67.4486 54.1628 67.9486C54.2259 67.9679 54.2889 67.9871 54.4151 68.0256C52.9397 67.438 52.0622 65.7939 52.5422 64.2195Z" fill="#D8D9DA"/>
<path opacity="0.91" d="M40.7054 63.0189C42.6798 66.7183 45.5921 69.6024 49.0202 71.4736C42.2462 70.8536 35.8453 66.9746 32.3792 60.4801C26.9387 50.2862 30.7792 37.6911 40.9818 32.2671C47.4818 28.8115 54.958 29.1638 60.9255 32.4288C57.0366 32.069 53.0105 32.8375 49.308 34.8059C39.1053 40.2299 35.2649 52.825 40.7054 63.0189Z" fill="#00041E"/>
<defs>
<radialGradient id="paint0_radial_13_4437" cx="0" cy="0" r="1" gradientUnits="userSpaceOnUse" gradientTransform="translate(50.7965 50.6803) rotate(-73.0427) scale(31.0953 31.1455)">
<stop offset="0.0189189" stop-color="white"/>
<stop offset="0.9081" stop-color="white" stop-opacity="0"/>
</radialGradient>
</defs>
</svg>
